<?xml version="1.0" standalone="no"?>
<!DOCTYPE svg PUBLIC "-//W3C//DTD SVG 1.1//EN" "http://www.w3.org/Graphics/SVG/1.1/DTD/svg11.dtd" >
<svg xmlns="http://www.w3.org/2000/svg">
<metadata>Generated by IcoMoon</metadata>
<defs>
<font id="kealm-icon" horiz-adv-x="1024">
<font-face units-per-em="1024" ascent="896" descent="-128" />
<missing-glyph horiz-adv-x="1024" />
<glyph unicode="&#x20;" d="" />
<glyph unicode="&#xe61c;" glyph-name="loading" d="M843.307 153.76c0-3.217 2.607-5.824 5.824-5.824s5.824 2.607 5.824 5.824c0 0 0 0.001 0 0.001 0 3.216-2.607 5.823-5.823 5.823 0 0-0.001 0-0.001 0v0c0 0-0.001 0-0.001 0-3.216 0-5.823-2.607-5.823-5.823 0 0 0-0.001 0-0.001v0zM714.731 21.088c0-6.398 5.186-11.584 11.584-11.584s11.584 5.186 11.584 11.584-5.186 11.584-11.584 11.584-11.584-5.186-11.584-11.584zM541.419-47.2c0-9.614 7.794-17.408 17.408-17.408s17.408 7.794 17.408 17.408-7.794 17.408-17.408 17.408-17.408-7.794-17.408-17.408zM354.859-38.048c0-12.795 10.373-23.168 23.168-23.168s23.168 10.373 23.168 23.168-10.373 23.168-23.168 23.168-23.168-10.373-23.168-23.168zM189.355 46.88c0-16.012 12.98-28.992 28.992-28.992s28.992 12.98 28.992 28.992-12.98 28.992-28.992 28.992-28.992-12.98-28.992-28.992zM74.731 191.264c0-19.228 15.588-34.816 34.816-34.816s34.816 15.588 34.816 34.816-15.588 34.816-34.816 34.816-34.816-15.588-34.816-34.816zM31.723 368.544c0-22.41 18.166-40.576 40.576-40.576s40.576 18.166 40.576 40.576-18.166 40.576-40.576 40.576-40.576-18.166-40.576-40.576zM67.115 544.672c0-25.626 20.774-46.4 46.4-46.4s46.4 20.774 46.4 46.4c0 25.626-20.774 46.4-46.4 46.4s-46.4-20.774-46.4-46.4zM173.291 686.688c0-28.843 23.381-52.224 52.224-52.224s52.224 23.381 52.224 52.224c0 28.843-23.381 52.224-52.224 52.224s-52.224-23.381-52.224-52.224zM329.195 768.032c0-32.024 25.96-57.984 57.984-57.984s57.984 25.96 57.984 57.984-25.96 57.984-57.984 57.984-57.984-25.96-57.984-57.984zM504.299 773.088c0-35.24 28.568-63.808 63.808-63.808s63.808 28.568 63.808 63.808c0 35.24-28.568 63.808-63.808 63.808s-63.808-28.568-63.808-63.808zM664.619 700.96c0-38.421 31.147-69.568 69.568-69.568s69.568 31.147 69.568 69.568-31.147 69.568-69.568 69.568-69.568-31.147-69.568-69.568zM778.539 565.472c0-41.638 33.754-75.392 75.392-75.392s75.392 33.754 75.392 75.392-33.754 75.392-75.392 75.392-75.392-33.754-75.392-75.392zM823.851 389.984c0-44.854 36.362-81.216 81.216-81.216s81.216 36.362 81.216 81.216c0 44.854-36.362 81.216-81.216 81.216s-81.216-36.362-81.216-81.216z" />
<glyph unicode="&#xe622;" glyph-name="music" d="M960 896h64v-736c0-88.352-100.288-160-224-160s-224 71.648-224 160c0 88.352 100.288 160 224 160 62.688 0 119.328-18.4 160-48.032v368.032l-512-113.792v-494.208c0-88.352-100.288-160-224-160s-224 71.648-224 160c0 88.352 100.288 160 224 160 62.688 0 119.328-18.4 160-48.032v624.032l576 128z" />
<glyph unicode="&#xe722;" glyph-name="home" d="M1024 305.568l-512 397.44-512-397.44v162.048l512 397.44 512-397.44zM896 320v-384h-256v256h-256v-256h-256v384l384 288z" />
<glyph unicode="&#xe77d;" glyph-name="check-circle" d="M699 543h-46.9c-10.2 0-19.9-4.9-25.9-13.3l-157.2-218-71.2 98.8c-6 8.3-15.6 13.3-25.9 13.3h-46.9c-6.5 0-10.3-7.4-6.5-12.7l124.6-172.8c12.7-17.7 39-17.7 51.7 0l210.6 292c3.9 5.3 0.1 12.7-6.4 12.7zM512 832c-247.4 0-448-200.6-448-448s200.6-448 448-448 448 200.6 448 448-200.6 448-448 448zM512 12c-205.4 0-372 166.6-372 372s166.6 372 372 372 372-166.6 372-372-166.6-372-372-372z" />
<glyph unicode="&#xe77e;" glyph-name="frown" d="M288 475c0-26.51 21.49-48 48-48s48 21.49 48 48v0c0 26.51-21.49 48-48 48s-48-21.49-48-48v0zM640 475c0-26.51 21.49-48 48-48s48 21.49 48 48v0c0 26.51-21.49 48-48 48s-48-21.49-48-48v0zM512 832c-247.4 0-448-200.6-448-448s200.6-448 448-448 448 200.6 448 448-200.6 448-448 448zM775 121c-34.2-34.2-74-61-118.3-79.8-45.7-19.4-94.4-29.2-144.7-29.2s-99 9.8-144.8 29.2c-44.3 18.7-84.1 45.6-118.3 79.8s-61 74-79.8 118.3c-19.3 45.7-29.1 94.4-29.1 144.7s9.8 99 29.2 144.8c18.7 44.3 45.6 84.1 79.8 118.3s74 61 118.3 79.8c45.7 19.3 94.4 29.1 144.7 29.1s99-9.8 144.8-29.2c44.3-18.7 84.1-45.6 118.3-79.8s61-74 79.8-118.3c19.3-45.7 29.1-94.4 29.1-144.7s-9.8-99-29.2-144.8c-18.7-44.3-45.6-84.1-79.8-118.2zM512 363c-85.5 0-155.6-67.3-160-151.6-0.2-4.6 3.4-8.4 8-8.4h48.1c4.2 0 7.8 3.2 8.1 7.4 3.8 49.5 45.3 88.6 95.8 88.6s92.1-39.1 95.8-88.6c0.3-4.2 3.9-7.4 8.1-7.4h48.1c4.6 0 8.2 3.8 8 8.4-4.4 84.3-74.5 151.6-160 151.6z" />
<glyph unicode="&#xe77f;" glyph-name="info-circle" d="M512 832c-247.4 0-448-200.6-448-448s200.6-448 448-448 448 200.6 448 448-200.6 448-448 448zM512 12c-205.4 0-372 166.6-372 372s166.6 372 372 372 372-166.6 372-372-166.6-372-372-372zM464 560c0-26.51 21.49-48 48-48s48 21.49 48 48v0c0 26.51-21.49 48-48 48s-48-21.49-48-48v0zM536 448h-48c-4.4 0-8-3.6-8-8v-272c0-4.4 3.6-8 8-8h48c4.4 0 8 3.6 8 8v272c0 4.4-3.6 8-8 8z" />
<glyph unicode="&#xe780;" glyph-name="minus-circle" d="M696 416h-368c-4.4 0-8-3.6-8-8v-48c0-4.4 3.6-8 8-8h368c4.4 0 8 3.6 8 8v48c0 4.4-3.6 8-8 8zM512 832c-247.4 0-448-200.6-448-448s200.6-448 448-448 448 200.6 448 448-200.6 448-448 448zM512 12c-205.4 0-372 166.6-372 372s166.6 372 372 372 372-166.6 372-372-166.6-372-372-372z" />
<glyph unicode="&#xe781;" glyph-name="plus-circle" d="M696 416h-152v152c0 4.4-3.6 8-8 8h-48c-4.4 0-8-3.6-8-8v-152h-152c-4.4 0-8-3.6-8-8v-48c0-4.4 3.6-8 8-8h152v-152c0-4.4 3.6-8 8-8h48c4.4 0 8 3.6 8 8v152h152c4.4 0 8 3.6 8 8v48c0 4.4-3.6 8-8 8zM512 832c-247.4 0-448-200.6-448-448s200.6-448 448-448 448 200.6 448 448-200.6 448-448 448zM512 12c-205.4 0-372 166.6-372 372s166.6 372 372 372 372-166.6 372-372-166.6-372-372-372z" />
<glyph unicode="&#xe782;" glyph-name="question-circle" d="M512 832c-247.4 0-448-200.6-448-448s200.6-448 448-448 448 200.6 448 448-200.6 448-448 448zM512 12c-205.4 0-372 166.6-372 372s166.6 372 372 372 372-166.6 372-372-166.6-372-372-372zM623.6 579.3c-30 26.3-69.6 40.7-111.6 40.7s-81.6-14.5-111.6-40.7c-31.2-27.3-48.4-64-48.4-103.3v-7.6c0-4.4 3.6-8 8-8h48c4.4 0 8 3.6 8 8v7.6c0 44.1 43.1 80 96 80s96-35.9 96-80c0-31.1-22-59.6-56.1-72.7-21.2-8.1-39.2-22.3-52.1-40.9-13.1-19-19.9-41.8-19.9-64.9v-21.5c0-4.4 3.6-8 8-8h48c4.4 0 8 3.6 8 8v22.7c0 19.7 12.4 37.7 30.9 44.8 59 22.7 97.1 74.7 97.1 132.5 0.1 39.3-17.1 76-48.3 103.3zM472 164c0-22.091 17.909-40 40-40s40 17.909 40 40v0c0 22.091-17.909 40-40 40s-40-17.909-40-40v0z" />
<glyph unicode="&#xe783;" glyph-name="smile" d="M288 475c0-26.51 21.49-48 48-48s48 21.49 48 48v0c0 26.51-21.49 48-48 48s-48-21.49-48-48v0zM640 475c0-26.51 21.49-48 48-48s48 21.49 48 48v0c0 26.51-21.49 48-48 48s-48-21.49-48-48v0zM512 832c-247.4 0-448-200.6-448-448s200.6-448 448-448 448 200.6 448 448-200.6 448-448 448zM775 121c-34.2-34.2-74-61-118.3-79.8-45.7-19.4-94.4-29.2-144.7-29.2s-99 9.8-144.8 29.2c-44.3 18.7-84.1 45.6-118.3 79.8s-61 74-79.8 118.3c-19.3 45.7-29.1 94.4-29.1 144.7s9.8 99 29.2 144.8c18.7 44.3 45.6 84.1 79.8 118.3s74 61 118.3 79.8c45.7 19.3 94.4 29.1 144.7 29.1s99-9.8 144.8-29.2c44.3-18.7 84.1-45.6 118.3-79.8s61-74 79.8-118.3c19.3-45.7 29.1-94.4 29.1-144.7s-9.8-99-29.2-144.8c-18.7-44.3-45.6-84.1-79.8-118.2zM664 363h-48.1c-4.2 0-7.8-3.2-8.1-7.4-3.8-49.5-45.3-88.6-95.8-88.6s-92.1 39.1-95.8 88.6c-0.3 4.2-3.9 7.4-8.1 7.4h-48.1c-4.6 0-8.2-3.8-8-8.4 4.4-84.3 74.5-151.6 160-151.6s155.6 67.3 160 151.6c0.2 4.6-3.4 8.4-8 8.4z" />
<glyph unicode="&#xe784;" glyph-name="time-circle" d="M512 832c-247.4 0-448-200.6-448-448s200.6-448 448-448 448 200.6 448 448-200.6 448-448 448zM512 12c-205.4 0-372 166.6-372 372s166.6 372 372 372 372-166.6 372-372-166.6-372-372-372zM686.7 257.4l-142.6 103.1v247.5c0 4.4-3.6 8-8 8h-48.1c-4.4 0-8-3.6-8-8v-275.4c0-2.6 1.2-5 3.3-6.5l165.4-120.6c3.6-2.6 8.6-1.8 11.2 1.7l28.6 39c2.6 3.7 1.8 8.7-1.8 11.2z" />
<glyph unicode="&#xe785;" glyph-name="warning-circle" d="M512 832c-247.4 0-448-200.6-448-448s200.6-448 448-448 448 200.6 448 448-200.6 448-448 448zM512 12c-205.4 0-372 166.6-372 372s166.6 372 372 372 372-166.6 372-372-166.6-372-372-372zM464 208c0-26.51 21.49-48 48-48s48 21.49 48 48v0c0 26.51-21.49 48-48 48s-48-21.49-48-48v0zM488 320h48c4.4 0 8 3.6 8 8v272c0 4.4-3.6 8-8 8h-48c-4.4 0-8-3.6-8-8v-272c0-4.4 3.6-8 8-8z" />
<glyph unicode="&#xe78c;" glyph-name="issues-close" d="M464 208c0-26.51 21.49-48 48-48s48 21.49 48 48v0c0 26.51-21.49 48-48 48s-48-21.49-48-48v0zM536 320c4.4 0 8 3.6 8 8v272c0 4.4-3.6 8-8 8h-48c-4.4 0-8-3.6-8-8v-272c0-4.4 3.6-8 8-8h48zM936 508h-59.3c-2.6 0-5-1.2-6.5-3.3l-106.5-146.8-49.9 68.8c-1.5 2.1-3.9 3.3-6.5 3.3h-59.3c-6.5 0-10.3-7.4-6.5-12.7l109.2-150.7c6.4-8.8 19.6-8.8 26 0l165.8 228.7c3.8 5.3 0 12.7-6.5 12.7zM892 202h-64.2c-5.5 0-10.6-2.9-13.6-7.5-14.1-22.4-30.7-43.2-49.8-62.2-32.8-32.7-70.9-58.4-113.3-76.3-43.9-18.5-90.5-27.9-138.7-27.9-48.1 0-94.8 9.4-138.7 27.9-42.4 17.9-80.5 43.6-113.3 76.3s-58.5 70.8-76.4 113.2c-18.6 43.8-28 90.5-28 138.5s9.4 94.7 28 138.5c17.9 42.4 43.6 80.5 76.4 113.2s70.9 58.4 113.3 76.3c43.9 18.5 90.5 27.9 138.7 27.9 48.1 0 94.8-9.4 138.7-27.9 42.4-17.9 80.5-43.6 113.3-76.3 19-19 35.6-39.8 49.8-62.2 2.9-4.7 8.1-7.5 13.6-7.5h64.2c6 0 9.8 6.3 7.2 11.6-70.4 139.9-214.5 236.4-381.5 238.4-238.8 2.8-437.2-192.5-437.7-431.2-0.5-238.9 193.3-432.8 432.4-432.8 169.2 0 315.6 97 386.7 238.4 2.7 5.3-1.2 11.6-7.1 11.6z" />
<glyph unicode="&#xe78e;" glyph-name="config" d="M924.8 270.3l-65.5 56c3.1 19 4.7 38.4 4.7 57.8s-1.6 38.8-4.7 57.8l65.5 56c10.1 8.6 13.8 22.6 9.3 35.2l-0.9 2.6c-18.1 50.5-44.9 96.9-79.7 137.9l-1.8 2.1c-8.6 10.1-22.5 13.9-35.1 9.5l-81.3-28.9c-30 24.6-63.5 44-99.7 57.6l-15.7 85c-2.4 13.1-12.7 23.3-25.8 25.7l-2.7 0.5c-52.1 9.4-106.9 9.4-159 0l-2.7-0.5c-13.1-2.4-23.4-12.6-25.8-25.7l-15.8-85.4c-35.9-13.6-69.2-32.9-99-57.4l-81.9 29.1c-12.5 4.4-26.5 0.7-35.1-9.5l-1.8-2.1c-34.8-41.1-61.6-87.5-79.7-137.9l-0.9-2.6c-4.5-12.5-0.8-26.5 9.3-35.2l66.3-56.6c-3.1-18.8-4.6-38-4.6-57.1 0-19.2 1.5-38.4 4.6-57.1l-66.3-56.6c-10.1-8.6-13.8-22.6-9.3-35.2l0.9-2.6c18.1-50.4 44.9-96.9 79.7-137.9l1.8-2.1c8.6-10.1 22.5-13.9 35.1-9.5l81.9 29.1c29.8-24.5 63.1-43.9 99-57.4l15.8-85.4c2.4-13.1 12.7-23.3 25.8-25.7l2.7-0.5c26.1-4.7 52.8-7.1 79.5-7.1s53.5 2.4 79.5 7.1l2.7 0.5c13.1 2.4 23.4 12.6 25.8 25.7l15.7 85c36.2 13.6 69.7 32.9 99.7 57.6l81.3-28.9c12.5-4.4 26.5-0.7 35.1 9.5l1.8 2.1c34.8 41.1 61.6 87.5 79.7 137.9l0.9 2.6c4.5 12.3 0.8 26.3-9.3 35zM788.3 430.1c2.5-15.1 3.8-30.6 3.8-46.1s-1.3-31-3.8-46.1l-6.6-40.1 74.7-63.9c-11.3-26.1-25.6-50.7-42.6-73.6l-92.8 32.9-31.4-25.8c-23.9-19.6-50.5-35-79.3-45.8l-38.1-14.3-17.9-97c-28.1-3.2-56.8-3.2-85 0l-17.9 97.2-37.8 14.5c-28.5 10.8-55 26.2-78.7 45.7l-31.4 25.9-93.4-33.2c-17 22.9-31.2 47.6-42.6 73.6l75.5 64.5-6.5 40c-2.4 14.9-3.7 30.3-3.7 45.5 0 15.3 1.2 30.6 3.7 45.5l6.5 40-75.5 64.5c11.3 26.1 25.6 50.7 42.6 73.6l93.4-33.2 31.4 25.9c23.7 19.5 50.2 34.9 78.7 45.7l37.9 14.3 17.9 97.2c28.1 3.2 56.8 3.2 85 0l17.9-97 38.1-14.3c28.7-10.8 55.4-26.2 79.3-45.8l31.4-25.8 92.8 32.9c17-22.9 31.2-47.6 42.6-73.6l-74.7-63.9 6.5-39.9zM512 570c-97.2 0-176-78.8-176-176s78.8-176 176-176 176 78.8 176 176-78.8 176-176 176zM591.2 314.8c-21.2-21.1-49.3-32.8-79.2-32.8s-58 11.7-79.2 32.8c-21.1 21.2-32.8 49.3-32.8 79.2s11.7 58 32.8 79.2c21.2 21.2 49.3 32.8 79.2 32.8s58-11.6 79.2-32.8c21.1-21.2 32.8-49.3 32.8-79.2s-11.7-58-32.8-79.2z" />
<glyph unicode="&#xe78f;" glyph-name="eye" d="M942.2 409.8c-94.8 199.7-238.1 300.2-430.2 300.2-192.2 0-335.4-100.5-430.2-300.3-7.7-16.2-7.7-35.2 0-51.5 94.8-199.7 238.1-300.2 430.2-300.2 192.2 0 335.4 100.5 430.2 300.3 7.7 16.2 7.7 35 0 51.5zM512 130c-161.3 0-279.4 81.8-362.7 254 83.3 172.2 201.4 254 362.7 254s279.4-81.8 362.7-254c-83.2-172.2-201.3-254-362.7-254zM508 560c-97.2 0-176-78.8-176-176s78.8-176 176-176 176 78.8 176 176-78.8 176-176 176zM508 272c-61.9 0-112 50.1-112 112s50.1 112 112 112 112-50.1 112-112-50.1-112-112-112z" />
<glyph unicode="&#xe793;" glyph-name="close-square" d="M354 225h58.9c4.7 0 9.2 2.1 12.3 5.7l86.8 103.5 86.8-103.5c3-3.6 7.5-5.7 12.3-5.7h58.9c6.8 0 10.5 7.9 6.1 13.1l-122.3 145.9 122.4 145.9c4.4 5.2 0.7 13.1-6.1 13.1h-58.9c-4.7 0-9.2-2.1-12.3-5.7l-86.9-103.5-86.8 103.5c-3 3.6-7.5 5.7-12.3 5.7h-58.9c-6.8 0-10.5-7.9-6.1-13.1l122.3-145.9-122.3-145.9c-4.4-5.2-0.7-13.1 6.1-13.1zM880 784h-736c-17.7 0-32-14.3-32-32v-736c0-17.7 14.3-32 32-32h736c17.7 0 32 14.3 32 32v736c0 17.7-14.3 32-32 32zM840 56h-656v656h656v-656z" />
<glyph unicode="&#xe796;" glyph-name="minus-square" d="M328 352h368c4.4 0 8 3.6 8 8v48c0 4.4-3.6 8-8 8h-368c-4.4 0-8-3.6-8-8v-48c0-4.4 3.6-8 8-8zM880 784h-736c-17.7 0-32-14.3-32-32v-736c0-17.7 14.3-32 32-32h736c17.7 0 32 14.3 32 32v736c0 17.7-14.3 32-32 32zM840 56h-656v656h656v-656z" />
<glyph unicode="&#xe797;" glyph-name="plus-square" d="M328 352h152v-152c0-4.4 3.6-8 8-8h48c4.4 0 8 3.6 8 8v152h152c4.4 0 8 3.6 8 8v48c0 4.4-3.6 8-8 8h-152v152c0 4.4-3.6 8-8 8h-48c-4.4 0-8-3.6-8-8v-152h-152c-4.4 0-8-3.6-8-8v-48c0-4.4 3.6-8 8-8zM880 784h-736c-17.7 0-32-14.3-32-32v-736c0-17.7 14.3-32 32-32h736c17.7 0 32 14.3 32 32v736c0 17.7-14.3 32-32 32zM840 56h-656v656h656v-656z" />
<glyph unicode="&#xe7a8;" glyph-name="check-square" d="M433.1 238.3c12.7-17.7 39-17.7 51.7 0l210.6 292c3.8 5.3 0 12.7-6.5 12.7h-46.9c-10.2 0-19.9-4.9-25.9-13.3l-157.1-218-71.2 98.8c-6 8.3-15.6 13.3-25.9 13.3h-46.9c-6.5 0-10.3-7.4-6.5-12.7l124.6-172.8zM880 784h-736c-17.7 0-32-14.3-32-32v-736c0-17.7 14.3-32 32-32h736c17.7 0 32 14.3 32 32v736c0 17.7-14.3 32-32 32zM840 56h-656v656h656v-656z" />
<glyph unicode="&#xe7ae;" glyph-name="add-user" d="M678.3 253.6c24.2 13 51.9 20.4 81.4 20.4h0.1c3 0 4.4 3.6 2.2 5.6-30.8 27.6-65.6 49.7-103.7 65.8-0.4 0.2-0.8 0.3-1.2 0.5 62.1 45.1 102.5 118.4 102.5 201.1 0 137-110.8 248-247.5 248s-247.4-111-247.4-248c0-82.7 40.4-156 102.6-201.1-0.4-0.2-0.8-0.3-1.2-0.5-44.7-18.9-84.8-46-119.3-80.6-34.5-34.5-61.5-74.7-80.4-119.5-18.5-43.8-28.4-90.3-29.4-138.1-0.1-4.5 3.5-8.2 8-8.2h59.9c4.3 0 7.9 3.5 8 7.8 2 77.2 32.9 149.5 87.6 204.3 56.5 56.7 131.7 87.9 211.7 87.9 56.7 0 111.1-15.7 158-45.1 2.5-1.5 5.5-1.7 8.1-0.3zM512.2 375c-45.8 0-88.9 17.9-121.4 50.4-32.4 32.5-50.3 75.7-50.3 121.6s17.9 89.1 50.3 121.6 75.5 50.4 121.4 50.4 88.9-17.9 121.4-50.4c32.4-32.5 50.3-75.7 50.3-121.6s-17.9-89.1-50.3-121.6c-32.5-32.5-75.6-50.4-121.4-50.4zM880 137h-84v84c0 4.4-3.6 8-8 8h-56c-4.4 0-8-3.6-8-8v-84h-84c-4.4 0-8-3.6-8-8v-56c0-4.4 3.6-8 8-8h84v-84c0-4.4 3.6-8 8-8h56c4.4 0 8 3.6 8 8v84h84c4.4 0 8 3.6 8 8v56c0 4.4-3.6 8-8 8z" />
<glyph unicode="&#xe7af;" glyph-name="delete-team" d="M888 112h-224c-4.4 0-8-3.6-8-8v-48c0-4.4 3.6-8 8-8h224c4.4 0 8 3.6 8 8v48c0 4.4-3.6 8-8 8zM373.5 385.6c-0.9 8.7-1.4 17.5-1.4 26.4 0 15.9 1.5 31.4 4.3 46.5 0.7 3.6-1.2 7.3-4.5 8.8-13.6 6.1-26.1 14.5-36.9 25.1-25.8 25.2-39.7 59.3-38.7 95.4 0.9 32.1 13.8 62.6 36.3 85.6 24.7 25.3 57.9 39.1 93.2 38.7 31.9-0.3 62.7-12.6 86-34.4 7.9-7.4 14.7-15.6 20.4-24.4 2-3.1 5.9-4.4 9.3-3.2 17.6 6.1 36.2 10.4 55.3 12.4 5.6 0.6 8.8 6.6 6.3 11.6-32.5 64.3-98.9 108.7-175.7 109.9-110.9 1.7-203.3-89.2-203.3-199.9 0-62.8 28.9-118.8 74.2-155.5-31.8-14.7-61.1-35-86.5-60.4-54.8-54.7-85.8-126.9-87.8-204-0.1-4.5 3.5-8.2 8-8.2h56.1c4.3 0 7.9 3.4 8 7.7 1.9 58 25.4 112.3 66.7 153.5 29.4 29.4 65.4 49.8 104.7 59.7 3.9 1 6.5 4.7 6 8.7zM824 412c0 109.4-87.9 198.3-196.9 200-110.8 1.7-203.1-89.2-203.1-200 0-62.8 29-118.8 74.2-155.5-31.7-14.7-60.9-34.9-86.4-60.4-54.8-54.7-85.8-126.9-87.8-203.9-0.1-4.5 3.5-8.2 8-8.2h56c4.3 0 7.9 3.4 8 7.7 1.9 58 25.4 112.3 66.7 153.5 43.1 43.1 100.3 66.8 161.3 66.8 110.4 0 200 89.5 200 200zM714.5 321.5c-24.2-24.2-56.3-37.5-90.5-37.5s-66.3 13.3-90.5 37.5c-24.5 24.5-37.8 57.1-37.5 91.8 0.3 32.8 13.4 64.5 36.3 88 24 24.6 56.1 38.3 90.4 38.7 33.9 0.3 66.8-12.9 91-36.6 24.8-24.3 38.4-56.8 38.4-91.4-0.1-34.2-13.4-66.3-37.6-90.5z" />
<glyph unicode="&#xe7b0;" glyph-name="delete-user" d="M678.3 240.6c24.2 13 51.9 20.4 81.4 20.4h0.1c3 0 4.4 3.6 2.2 5.6-30.8 27.6-65.6 49.7-103.7 65.8-0.4 0.2-0.8 0.3-1.2 0.5 62.1 45.1 102.5 118.4 102.5 201.1 0 137-110.8 248-247.5 248s-247.4-111-247.4-248c0-82.7 40.4-156 102.6-201.1-0.4-0.2-0.8-0.3-1.2-0.5-44.7-18.9-84.8-46-119.3-80.6-34.5-34.5-61.5-74.7-80.4-119.5-18.5-43.8-28.4-90.3-29.4-138.1-0.1-4.5 3.5-8.2 8-8.2h59.9c4.3 0 7.9 3.5 8 7.8 2 77.2 32.9 149.5 87.6 204.3 56.5 56.7 131.7 87.9 211.7 87.9 56.7 0 111.1-15.7 158-45.1 2.5-1.5 5.5-1.7 8.1-0.3zM512.2 362c-45.8 0-88.9 17.9-121.4 50.4-32.4 32.5-50.3 75.7-50.3 121.6s17.9 89.1 50.3 121.6 75.5 50.4 121.4 50.4 88.9-17.9 121.4-50.4c32.4-32.5 50.3-75.7 50.3-121.6s-17.9-89.1-50.3-121.6c-32.5-32.5-75.6-50.4-121.4-50.4zM880 124h-240c-4.4 0-8-3.6-8-8v-56c0-4.4 3.6-8 8-8h240c4.4 0 8 3.6 8 8v56c0 4.4-3.6 8-8 8z" />
<glyph unicode="&#xe7b1;" glyph-name="add-team" d="M892 124h-80v80c0 4.4-3.6 8-8 8h-48c-4.4 0-8-3.6-8-8v-80h-80c-4.4 0-8-3.6-8-8v-48c0-4.4 3.6-8 8-8h80v-80c0-4.4 3.6-8 8-8h48c4.4 0 8 3.6 8 8v80h80c4.4 0 8 3.6 8 8v48c0 4.4-3.6 8-8 8zM373.5 397.6c-0.9 8.7-1.4 17.5-1.4 26.4 0 15.9 1.5 31.4 4.3 46.5 0.7 3.6-1.2 7.3-4.5 8.8-13.6 6.1-26.1 14.5-36.9 25.1-25.8 25.2-39.7 59.3-38.7 95.4 0.9 32.1 13.8 62.6 36.3 85.6 24.7 25.3 57.9 39.1 93.2 38.7 31.9-0.3 62.7-12.6 86-34.4 7.9-7.4 14.7-15.6 20.4-24.4 2-3.1 5.9-4.4 9.3-3.2 17.6 6.1 36.2 10.4 55.3 12.4 5.6 0.6 8.8 6.6 6.3 11.6-32.5 64.3-98.9 108.7-175.7 109.9-110.8 1.7-203.2-89.2-203.2-200 0-62.8 28.9-118.8 74.2-155.5-31.8-14.7-61.1-35-86.5-60.4-54.8-54.7-85.8-126.9-87.8-204-0.1-4.5 3.5-8.2 8-8.2h56.1c4.3 0 7.9 3.4 8 7.7 1.9 58 25.4 112.3 66.7 153.5 29.4 29.4 65.4 49.8 104.7 59.7 3.8 1.1 6.4 4.8 5.9 8.8zM824 424c0 109.4-87.9 198.3-196.9 200-110.8 1.7-203.1-89.2-203.1-200 0-62.8 29-118.8 74.2-155.5-31.7-14.7-60.9-34.9-86.4-60.4-54.8-54.7-85.8-126.9-87.8-203.9-0.1-4.5 3.5-8.2 8-8.2h56c4.3 0 7.9 3.4 8 7.7 1.9 58 25.4 112.3 66.7 153.5 43.1 43.1 100.3 66.8 161.3 66.8 110.4 0 200 89.5 200 200zM714.5 333.5c-24.2-24.2-56.3-37.5-90.5-37.5s-66.3 13.3-90.5 37.5c-24.5 24.5-37.8 57.1-37.5 91.8 0.3 32.8 13.4 64.5 36.3 88 24 24.6 56.1 38.3 90.4 38.7 33.9 0.3 66.8-12.9 91-36.6 24.8-24.3 38.4-56.8 38.4-91.4-0.1-34.2-13.4-66.3-37.6-90.5z" />
<glyph unicode="&#xe7b2;" glyph-name="user" d="M858.5 132.4c-18.9 44.8-46.1 85-80.6 119.5s-74.7 61.6-119.5 80.6c-0.4 0.2-0.8 0.3-1.2 0.5 62.3 45 102.8 118.3 102.8 201 0 137-111 248-248 248s-248-111-248-248c0-82.7 40.5-156 102.8-201.1-0.4-0.2-0.8-0.3-1.2-0.5-44.8-18.9-85-46-119.5-80.6-34.5-34.5-61.6-74.7-80.6-119.5-18.6-43.8-28.5-90.3-29.5-138.1-0.1-4.5 3.5-8.2 8-8.2h60c4.4 0 7.9 3.5 8 7.8 2 77.2 33 149.5 87.8 204.3 56.7 56.7 132 87.9 212.2 87.9s155.5-31.2 212.2-87.9c54.8-54.8 85.8-127.1 87.8-204.3 0.1-4.4 3.6-7.8 8-7.8h60c4.5 0 8.1 3.7 8 8.2-1 47.8-10.9 94.3-29.5 138.2zM512 362c-45.9 0-89.1 17.9-121.6 50.4s-50.4 75.7-50.4 121.6c0 45.9 17.9 89.1 50.4 121.6s75.7 50.4 121.6 50.4 89.1-17.9 121.6-50.4 50.4-75.7 50.4-121.6c0-45.9-17.9-89.1-50.4-121.6s-75.7-50.4-121.6-50.4z" />
<glyph unicode="&#xe7b3;" glyph-name="team" d="M824.2 196.1c-25.4 25.4-54.7 45.7-86.4 60.4 45.3 36.7 74.2 92.7 74.2 155.5 0 110.8-92.4 201.7-203.2 200-109.1-1.7-197-90.6-197-200 0-62.8 29-118.8 74.2-155.5-31.7-14.7-60.9-34.9-86.4-60.4-54.6-54.7-85.6-126.9-87.6-203.9-0.1-4.5 3.5-8.2 8-8.2h56c4.3 0 7.9 3.4 8 7.7 1.9 58 25.4 112.3 66.7 153.5 43.1 43.1 100.4 66.8 161.3 66.8s118.2-23.7 161.3-66.8c41.2-41.2 64.7-95.5 66.7-153.5 0.1-4.3 3.7-7.7 8-7.7h56c4.5 0 8.1 3.7 8 8.2-2 77-33 149.2-87.8 203.9zM612 284c-34.2 0-66.4 13.3-90.5 37.5-24.5 24.5-37.9 57.1-37.5 91.8 0.3 32.8 13.4 64.5 36.3 88 24 24.6 56.1 38.3 90.4 38.7 33.9 0.3 66.8-12.9 91-36.6 24.8-24.3 38.4-56.8 38.4-91.4 0-34.2-13.3-66.3-37.5-90.5s-56.4-37.5-90.6-37.5zM361.5 385.6c-0.9 8.7-1.4 17.5-1.4 26.4 0 15.9 1.5 31.4 4.3 46.5 0.7 3.6-1.2 7.3-4.5 8.8-13.6 6.1-26.1 14.5-36.9 25.1-25.8 25.2-39.7 59.3-38.7 95.4 0.9 32.1 13.8 62.6 36.3 85.6 24.7 25.3 57.9 39.1 93.2 38.7 31.9-0.3 62.7-12.6 86-34.4 7.9-7.4 14.7-15.6 20.4-24.4 2-3.1 5.9-4.4 9.3-3.2 17.6 6.1 36.2 10.4 55.3 12.4 5.6 0.6 8.8 6.6 6.3 11.6-32.5 64.3-98.9 108.7-175.7 109.9-110.9 1.7-203.3-89.2-203.3-199.9 0-62.8 28.9-118.8 74.2-155.5-31.8-14.7-61.1-35-86.5-60.4-54.8-54.7-85.8-126.9-87.8-204-0.1-4.5 3.5-8.2 8-8.2h56.1c4.3 0 7.9 3.4 8 7.7 1.9 58 25.4 112.3 66.7 153.5 29.4 29.4 65.4 49.8 104.7 59.7 3.9 1 6.5 4.7 6 8.7z" />
<glyph unicode="&#xe7b5;" glyph-name="solution" d="M688 632c0 4.4-3.6 8-8 8h-384c-4.4 0-8-3.6-8-8v-48c0-4.4 3.6-8 8-8h384c4.4 0 8 3.6 8 8v48zM680 496h-384c-4.4 0-8-3.6-8-8v-48c0-4.4 3.6-8 8-8h384c4.4 0 8 3.6 8 8v48c0 4.4-3.6 8-8 8zM480 352h-184c-4.4 0-8-3.6-8-8v-48c0-4.4 3.6-8 8-8h184c4.4 0 8 3.6 8 8v48c0 4.4-3.6 8-8 8zM432 44h-224v704h560v-344c0-4.4 3.6-8 8-8h56c4.4 0 8 3.6 8 8v384c0 17.7-14.3 32-32 32h-640c-17.7 0-32-14.3-32-32v-784c0-17.7 14.3-32 32-32h264c4.4 0 8 3.6 8 8v56c0 4.4-3.6 8-8 8zM788.8 118.4c29 26.3 47.2 64.3 47.2 106.6 0 79.5-64.5 144-144 144s-144-64.5-144-144c0-42.3 18.2-80.3 47.2-106.6-57-32.5-96.2-92.7-99.2-162.1-0.2-4.5 3.5-8.3 8-8.3h48.1c4.2 0 7.7 3.3 8 7.6 3.9 69.2 61.6 124.4 131.9 124.4s128-55.2 131.9-124.4c0.2-4.2 3.7-7.6 8-7.6h48.1c4.6 0 8.2 3.8 8 8.3-2.9 69.5-42.2 129.6-99.2 162.1zM692 305c44.2 0 80-35.8 80-80s-35.8-80-80-80-80 35.8-80 80 35.8 80 80 80z" />
<glyph unicode="&#xe7c3;" glyph-name="delete" d="M360 712h-8c4.4 0 8 3.6 8 8v-8h304v8c0-4.4 3.6-8 8-8h-8v-72h72v80c0 35.3-28.7 64-64 64h-320c-35.3 0-64-28.7-64-64v-80h72v72zM864 640h-704c-17.7 0-32-14.3-32-32v-32c0-4.4 3.6-8 8-8h60.4l24.7-523c1.6-34.1 29.8-61 63.9-61h454c34.2 0 62.3 26.8 63.9 61l24.7 523h60.4c4.4 0 8 3.6 8 8v32c0 17.7-14.3 32-32 32zM731.3 56h-438.6l-24.2 512h487l-24.2-512z" />
<glyph unicode="&#xe7c9;" glyph-name="unlock" d="M832 432h-500v224c0 30.9 25.1 56 56 56h248c30.9 0 56-25.1 56-56v-68c0-4.4 3.6-8 8-8h56c4.4 0 8 3.6 8 8v68c0 70.7-57.3 128-128 128h-248c-70.7 0-128-57.3-128-128v-224h-68c-17.7 0-32-14.3-32-32v-384c0-17.7 14.3-32 32-32h640c17.7 0 32 14.3 32 32v384c0 17.7-14.3 32-32 32zM792 56h-560v304h560v-304zM484 195v-53c0-4.4 3.6-8 8-8h40c4.4 0 8 3.6 8 8v53c12.1 8.7 20 22.9 20 39 0 26.5-21.5 48-48 48s-48-21.5-48-48c0-16.1 7.9-30.3 20-39z" />
<glyph unicode="&#xe7ca;" glyph-name="lock" d="M832 432h-68v224c0 70.7-57.3 128-128 128h-248c-70.7 0-128-57.3-128-128v-224h-68c-17.7 0-32-14.3-32-32v-384c0-17.7 14.3-32 32-32h640c17.7 0 32 14.3 32 32v384c0 17.7-14.3 32-32 32zM332 656c0 30.9 25.1 56 56 56h248c30.9 0 56-25.1 56-56v-224h-360v224zM792 56h-560v304h560v-304zM484 195v-53c0-4.4 3.6-8 8-8h40c4.4 0 8 3.6 8 8v53c12.1 8.7 20 22.9 20 39 0 26.5-21.5 48-48 48s-48-21.5-48-48c0-16.1 7.9-30.3 20-39z" />
<glyph unicode="&#xe7df;" glyph-name="error" d="M464 176c0-26.51 21.49-48 48-48s48 21.49 48 48v0c0 26.51-21.49 48-48 48s-48-21.49-48-48v0zM480 480v-184c0-4.4 3.6-8 8-8h48c4.4 0 8 3.6 8 8v184c0 4.4-3.6 8-8 8h-48c-4.4 0-8-3.6-8-8zM955.7 40l-416 720c-6.2 10.7-16.9 16-27.7 16s-21.6-5.3-27.7-16l-416-720c-12.3-21.4 3.1-48 27.7-48h832c24.6 0 40 26.6 27.7 48zM172.2 67.9l339.8 588.2 339.8-588.2h-679.6z" />
<glyph unicode="&#xe7e1;" glyph-name="edit" d="M257.7 144c2 0 4 0.2 6 0.5l168.2 29.5c2 0.4 3.9 1.3 5.3 2.8l423.9 423.9c3.9 3.9 3.9 10.2 0 14.1l-166.2 166.3c-1.9 1.9-4.4 2.9-7.1 2.9s-5.2-1-7.1-2.9l-423.9-423.9c-1.5-1.5-2.4-3.3-2.8-5.3l-29.5-168.2c-1.9-11.1 1.5-21.9 9.4-29.8 6.6-6.4 14.9-9.9 23.8-9.9zM325.1 318.4l362.7 362.6 73.3-73.3-362.7-362.6-88.9-15.7 15.6 89zM880 60h-736c-17.7 0-32-14.3-32-32v-36c0-4.4 3.6-8 8-8h784c4.4 0 8 3.6 8 8v36c0 17.7-14.3 32-32 32z" />
<glyph unicode="&#xe7eb;" glyph-name="right" d="M765.7 409.2l-450.8 352.1c-5.3 4.1-12.9 0.4-12.9-6.3v-77.3c0-4.9 2.3-9.6 6.1-12.6l360-281.1-360-281.1c-3.9-3-6.1-7.7-6.1-12.6v-77.3c0-6.7 7.7-10.4 12.9-6.3l450.8 352.1c16.4 12.8 16.4 37.6 0 50.4z" />
<glyph unicode="&#xe7ec;" glyph-name="left" d="M724 677.7v77.3c0 6.7-7.7 10.4-12.9 6.3l-450.8-352.1c-16.4-12.8-16.4-37.5 0-50.3l450.8-352.1c5.3-4.1 12.9-0.4 12.9 6.3v77.3c0 4.9-2.3 9.6-6.1 12.6l-360 281 360 281.1c3.8 3 6.1 7.7 6.1 12.6z" />
<glyph unicode="&#xe7ed;" glyph-name="up" d="M890.5 140.7l-352.6 486.1c-12.8 17.6-39 17.6-51.7 0l-352.7-486.1c-3.8-5.3-0.1-12.7 6.5-12.7h75c5.1 0 9.9 2.5 12.9 6.6l284.1 391.6 284.1-391.6c3-4.1 7.8-6.6 12.9-6.6h75c6.5 0 10.3 7.4 6.5 12.7z" />
<glyph unicode="&#xe7ee;" glyph-name="down" d="M884 640h-75c-5.1 0-9.9-2.5-12.9-6.6l-284.1-391.6-284.1 391.6c-3 4.1-7.8 6.6-12.9 6.6h-75c-6.5 0-10.3-7.4-6.5-12.7l352.6-486.1c12.8-17.6 39-17.6 51.7 0l352.6 486.1c3.9 5.3 0.1 12.7-6.4 12.7z" />
<glyph unicode="&#xe7f4;" glyph-name="menu" d="M904 736h-784c-4.4 0-8-3.6-8-8v-64c0-4.4 3.6-8 8-8h784c4.4 0 8 3.6 8 8v64c0 4.4-3.6 8-8 8zM904 112h-784c-4.4 0-8-3.6-8-8v-64c0-4.4 3.6-8 8-8h784c4.4 0 8 3.6 8 8v64c0 4.4-3.6 8-8 8zM904 424h-784c-4.4 0-8-3.6-8-8v-64c0-4.4 3.6-8 8-8h784c4.4 0 8 3.6 8 8v64c0 4.4-3.6 8-8 8z" />
<glyph unicode="&#xe7f5;" glyph-name="align-right" d="M904 738h-496c-4.4 0-8-3.6-8-8v-56c0-4.4 3.6-8 8-8h496c4.4 0 8 3.6 8 8v56c0 4.4-3.6 8-8 8zM904 314h-496c-4.4 0-8-3.6-8-8v-56c0-4.4 3.6-8 8-8h496c4.4 0 8 3.6 8 8v56c0 4.4-3.6 8-8 8zM904 102h-784c-4.4 0-8-3.6-8-8v-56c0-4.4 3.6-8 8-8h784c4.4 0 8 3.6 8 8v56c0 4.4-3.6 8-8 8zM904 526h-784c-4.4 0-8-3.6-8-8v-56c0-4.4 3.6-8 8-8h784c4.4 0 8 3.6 8 8v56c0 4.4-3.6 8-8 8z" />
<glyph unicode="&#xe7f6;" glyph-name="align-center" d="M264 666h496c4.4 0 8 3.6 8 8v56c0 4.4-3.6 8-8 8h-496c-4.4 0-8-3.6-8-8v-56c0-4.4 3.6-8 8-8zM760 242c4.4 0 8 3.6 8 8v56c0 4.4-3.6 8-8 8h-496c-4.4 0-8-3.6-8-8v-56c0-4.4 3.6-8 8-8h496zM904 102h-784c-4.4 0-8-3.6-8-8v-56c0-4.4 3.6-8 8-8h784c4.4 0 8 3.6 8 8v56c0 4.4-3.6 8-8 8zM904 526h-784c-4.4 0-8-3.6-8-8v-56c0-4.4 3.6-8 8-8h784c4.4 0 8 3.6 8 8v56c0 4.4-3.6 8-8 8z" />
<glyph unicode="&#xe7f7;" glyph-name="align-left" d="M120 666h496c4.4 0 8 3.6 8 8v56c0 4.4-3.6 8-8 8h-496c-4.4 0-8-3.6-8-8v-56c0-4.4 3.6-8 8-8zM120 242h496c4.4 0 8 3.6 8 8v56c0 4.4-3.6 8-8 8h-496c-4.4 0-8-3.6-8-8v-56c0-4.4 3.6-8 8-8zM904 102h-784c-4.4 0-8-3.6-8-8v-56c0-4.4 3.6-8 8-8h784c4.4 0 8 3.6 8 8v56c0 4.4-3.6 8-8 8zM904 526h-784c-4.4 0-8-3.6-8-8v-56c0-4.4 3.6-8 8-8h784c4.4 0 8 3.6 8 8v56c0 4.4-3.6 8-8 8z" />
<glyph unicode="&#xe7fc;" glyph-name="check" d="M912 706h-69.9c-9.8 0-19.1-4.5-25.1-12.2l-412.3-522.3-197.7 250.5c-6.1 7.7-15.3 12.2-25.1 12.2h-69.9c-6.7 0-10.4-7.7-6.3-12.9l273.9-347c12.8-16.2 37.4-16.2 50.3 0l488.4 618.9c4.1 5.1 0.4 12.8-6.3 12.8z" />
<glyph unicode="&#xe7fd;" glyph-name="close" d="M563.8 384l262.5 312.9c4.4 5.2 0.7 13.1-6.1 13.1h-79.8c-4.7 0-9.2-2.1-12.3-5.7l-216.5-258.1-216.5 258.1c-3 3.6-7.5 5.7-12.3 5.7h-79.8c-6.8 0-10.5-7.9-6.1-13.1l262.5-312.9-262.5-312.9c-4.4-5.2-0.7-13.1 6.1-13.1h79.8c4.7 0 9.2 2.1 12.3 5.7l216.5 258.1 216.5-258.1c3-3.6 7.5-5.7 12.3-5.7h79.8c6.8 0 10.5 7.9 6.1 13.1l-262.5 312.9z" />
<glyph unicode="&#xe7fe;" glyph-name="minus" d="M872 422h-720c-4.4 0-8-3.6-8-8v-60c0-4.4 3.6-8 8-8h720c4.4 0 8 3.6 8 8v60c0 4.4-3.6 8-8 8z" />
<glyph unicode="&#xe7ff;" glyph-name="question" d="M764 615.1c-14 30.6-33.9 58.1-59.3 81.6-51.6 47.9-120.1 74.3-192.7 74.3s-141.1-26.4-192.7-74.2c-25.4-23.6-45.3-51-59.3-81.7-14.6-32-22-65.9-22-100.9v-27c0-6.2 5-11.2 11.2-11.2h54c6.2 0 11.2 5 11.2 11.2v27c0 99.5 88.6 180.4 197.6 180.4s197.6-80.9 197.6-180.4c0-40.8-14.5-79.2-42-111.2-27.2-31.7-65.6-54.4-108.1-64-24.3-5.5-46.2-19.2-61.7-38.8-15.4-19.4-23.9-43.8-23.9-68.6v-31.4c0-6.2 5-11.2 11.2-11.2h54c6.2 0 11.2 5 11.2 11.2v31.4c0 15.7 10.9 29.5 26 32.9 58.4 13.2 111.4 44.7 149.3 88.7 19.1 22.3 34 47.1 44.3 74 10.7 27.9 16.1 57.2 16.1 87 0 35-7.4 69-22 100.9zM512 109c-30.9 0-56-25.1-56-56s25.1-56 56-56 56 25.1 56 56-25.1 56-56 56z" />
<glyph unicode="&#xe800;" glyph-name="ellipsis" d="M176 385c0-30.928 25.072-56 56-56s56 25.072 56 56v0c0 30.928-25.072 56-56 56s-56-25.072-56-56v0zM456 385c0-30.928 25.072-56 56-56s56 25.072 56 56v0c0 30.928-25.072 56-56 56s-56-25.072-56-56v0zM736 385c0-30.928 25.072-56 56-56s56 25.072 56 56v0c0 30.928-25.072 56-56 56s-56-25.072-56-56v0z" />
<glyph unicode="&#xe801;" glyph-name="dash" d="M112 420h160v-72h-160zM432 420h160v-72h-160zM752 420h160v-72h-160z" />
<glyph unicode="&#xe842;" glyph-name="stop-circle" d="M512 832c-247.4 0-448-200.6-448-448s200.6-448 448-448 448 200.6 448 448-200.6 448-448 448zM512 12c-205.4 0-372 166.6-372 372 0 89 31.3 170.8 83.5 234.8l523.3-523.3c-64-52.2-145.8-83.5-234.8-83.5zM800.5 149.2l-523.3 523.3c64 52.2 145.8 83.5 234.8 83.5 205.4 0 372-166.6 372-372 0-89-31.3-170.8-83.5-234.8z" />
<glyph unicode="&#xe846;" glyph-name="frown-fill" d="M512 832c-247.4 0-448-200.6-448-448s200.6-448 448-448 448 200.6 448 448-200.6 448-448 448zM288 475c0 26.5 21.5 48 48 48s48-21.5 48-48-21.5-48-48-48-48 21.5-48 48zM664 203h-48.1c-4.2 0-7.8 3.2-8.1 7.4-3.8 49.5-45.3 88.6-95.8 88.6s-92.1-39.1-95.8-88.6c-0.3-4.2-3.9-7.4-8.1-7.4h-48.1c-4.6 0-8.2 3.8-8 8.4 4.4 84.3 74.5 151.6 160 151.6s155.6-67.3 160-151.6c0.2-4.6-3.4-8.4-8-8.4zM688 427c-26.5 0-48 21.5-48 48s21.5 48 48 48 48-21.5 48-48-21.5-48-48-48z" />
<glyph unicode="&#xe847;" glyph-name="smile-fill" d="M512 832c-247.4 0-448-200.6-448-448s200.6-448 448-448 448 200.6 448 448-200.6 448-448 448zM288 475c0 26.5 21.5 48 48 48s48-21.5 48-48-21.5-48-48-48-48 21.5-48 48zM512 203c-85.5 0-155.6 67.3-160 151.6-0.2 4.6 3.4 8.4 8 8.4h48.1c4.2 0 7.8-3.2 8.1-7.4 3.8-49.5 45.3-88.6 95.8-88.6s92.1 39.1 95.8 88.6c0.3 4.2 3.9 7.4 8.1 7.4h48.1c4.6 0 8.2-3.8 8-8.4-4.4-84.3-74.5-151.6-160-151.6zM688 427c-26.5 0-48 21.5-48 48s21.5 48 48 48 48-21.5 48-48-21.5-48-48-48z" />
<glyph unicode="&#xe869;" glyph-name="eye-fill" d="M396 384c0-61.856 50.144-112 112-112s112 50.144 112 112v0c0 61.856-50.144 112-112 112s-112-50.144-112-112v0zM942.2 409.8c-94.8 199.7-238.1 300.2-430.2 300.2-192.2 0-335.4-100.5-430.2-300.3-7.7-16.2-7.7-35.2 0-51.5 94.8-199.7 238.1-300.2 430.2-300.2 192.2 0 335.4 100.5 430.2 300.3 7.7 16.2 7.7 35 0 51.5zM508 208c-97.2 0-176 78.8-176 176s78.8 176 176 176 176-78.8 176-176-78.8-176-176-176z" />
<glyph unicode="&#xe87c;" glyph-name="alipay" d="M789 285.7c-38.7 12.9-90.7 32.7-148.5 53.6 34.8 60.3 62.5 129 80.7 203.6h-190.7v68.6h233.6v38.3h-233.6v114.2h-95.4c-16.7 0-16.7-16.5-16.7-16.5v-97.8h-236.2v-38.3h236.3v-68.6h-195.1v-38.3h378.4c-13.8-47.6-32.4-92.3-54.5-132.9-122.8 40.4-253.8 73.2-336.1 53-52.6-13-86.5-36.1-106.5-60.3-91.4-111-25.9-279.6 167.2-279.6 114.1 0.1 224.1 63.7 309.3 168.3 127.1-61 378.8-165.7 378.8-165.7v149.3s-31.6 2.5-171 49.1zM253.9 149.4c-150.5 0-195 118.3-120.6 183.1 24.8 21.9 70.2 32.6 94.4 35 89.4 8.8 172.2-25.2 269.9-72.8-68.8-89.5-156.3-145.3-243.7-145.3z" />
<glyph unicode="&#xe87d;" glyph-name="taobao" d="M168.5 622.3c0-37.942 30.758-68.7 68.7-68.7s68.7 30.758 68.7 68.7v0c0 37.942-30.758 68.7-68.7 68.7s-68.7-30.758-68.7-68.7v0zM898.5 543.1s-23.7 184.4-426.9 70.1c17.3 30 25.6 49.5 25.6 49.5l-100.8 28.3s-40.6-132.6-113-194.4c0 0 70.1-40.6 69.4-39.4 20.1 20.1 38.2 40.6 53.7 60.4 16.1 7 31.5 13.6 46.7 19.8-18.6-33.5-48.7-83.8-78.8-115.6l42.4-37s28.8 27.7 60.4 61.2h36v-61.8h-140.3v-49.5h140.3v-118.5c-1.7 0-3.6 0-5.4 0.2-15.4 0.7-39.5 3.3-49 18.2-11.5 18.1-3 51.5-2.4 71.9h-97l-3.4-1.8s-35.5-159.1 102.3-155.5c129.1-3.6 203 36 238.6 63.1l14.2-52.6 79.6 33.2-53.9 131.9-64.6-20.1 12.1-45.2c-16.6-12.4-35.6-21.7-56.2-28.4v103.6h137.1v49.5h-137.1v61.8h137.6v49.5h-244.4c17.6 21.4 31.5 41.1 35 53.6l-42.5 11.6c182.8 65.5 284.5 54.2 283.6-53.2v-282.8s10.8-97.1-100.4-90.1l-60.2 12.9-14.2-57.1s259.9-74.4 281.1 125.4c21.3 200-5.2 327.3-5.2 327.3zM191.1 524.8l-45.4-69.7 83.6-52.1s56-28.5 29.4-81.9c-24.9-50.6-146.7-161.4-146.7-161.4l109-68.1c75.4 163.7 70.5 142 89.5 200.7 19.5 60.1 23.7 105.9-9.4 139.1-42.4 42.6-47 46.6-110 93.4z" />
<glyph unicode="&#xe87e;" glyph-name="zhihu" d="M564.7 665.9v-572.9h60l25.2-71.4 106.4 71.4h131.5v572.9h-323.1zM812.4 168.9h-59.9l-75.1-50.4-17.8 50.4h-18v418.8h170.7v-418.8zM526.1 409.1h-132.8c2.1 44.9 4.3 104.3 6.6 172.9h130.9l-0.1 8.1c0 0.6-0.2 14.7-2.3 29.1-2.1 15-6.6 34.9-21 34.9h-219.6c4.4 20.6 15.7 69.7 29.4 93.8l6.4 11.2-12.9 0.7c-0.8 0-19.6 0.9-41.4-10.6-35.7-19-51.7-56.4-58.7-84.4-18.4-73.1-44.6-123.9-55.7-145.6-3.3-6.4-5.3-10.2-6.2-12.8-1.8-4.9-0.8-9.8 2.8-13 10.5-9.5 38.2 2.9 38.5 3 0.6 0.3 1.3 0.6 2.2 1 13.9 6.3 55.1 25 69.8 84.5h56.7c0.7-32.2 3.1-138.4 2.9-172.9h-141l-2.1-1.5c-23.1-16.9-30.5-63.2-30.8-65.2l-1.4-9.2h167c-12.3-78.3-26.5-113.4-34-127.4-3.7-7-7.3-14-10.7-20.8-21.3-42.2-43.4-85.8-126.3-153.6-3.6-2.8-7-8-4.8-13.7 2.4-6.3 9.3-9.1 24.6-9.1 5.4 0 11.8 0.3 19.4 1 49.9 4.4 100.8 18 135.1 87.6 17 35.1 31.7 71.7 43.9 108.9l136.5-160 5 12c0.8 1.9 19 46.3 5.1 95.9l-0.5 1.8-108.1 123-22-16.6c6.4 26.1 10.6 49.9 12.5 71.1h158.7v8c0 40.1-18.5 63.9-19.2 64.9l-2.4 3z" />
<glyph unicode="&#xe87f;" glyph-name="aliwangwang" d="M868.2 518.6c-18.9 45.1-46.3 85.6-81.2 120.6-34.7 34.8-75.4 62.1-120.5 81.2-46.7 19.8-96.3 29.8-147.5 29.8-41.9 0-82.9-6.7-121.9-20-91.1 42.5-196.3 45.8-226.5 45.8-2.2 0-7.4 0-9.4-0.2-11.9-0.4-22.8-6.5-29.2-16.4-6.5-9.9-7.7-22.4-3.4-33.5l64.3-161.6c-34.6-58.3-52.8-125.1-52.8-193.2 0-51.4 10-101 29.8-147.6 18.9-45 46.2-85.6 81.2-120.5 34.7-34.8 75.4-62.1 120.5-81.2 46.7-19.8 96.3-29.8 147.4-29.8 51.3 0 100.9 10.1 147.7 29.8 44.9 18.9 85.5 46.3 120.4 81.2 34.7 34.8 62.1 75.4 81.2 120.6 19.8 46.7 29.8 96.5 29.8 147.6-0.2 51.2-10.1 100.8-29.9 147.4zM801.8 252.1c-15.5-36.8-37.7-69.7-65.9-98-28.4-28.5-61.3-50.7-97.7-65.9h-0.1c-38-16-78.3-24.2-119.9-24.2s-81.8 8.2-119.7 24.2c-36.7 15.5-69.6 37.8-97.8 66-28.4 28.5-50.6 61.4-65.8 97.8v0.1c-16 37.8-24.1 78.2-24.1 119.9 0 55.4 14.8 109.7 42.8 157l13.2 22.1-60.8 152.9c14.9-0.6 35.9-2.1 59.7-5.6 43.8-6.5 82.5-17.5 114.9-32.6l19-8.9 19.9 6.8c31.5 10.8 64.8 16.2 98.9 16.2 41.6 0 81.9-8.2 119.7-24.2 36.7-15.5 69.6-37.8 97.8-66 28.4-28.5 50.6-61.4 65.8-97.8l0.2-0.2c16-37.6 24.1-78 24.2-119.8-0.1-41.7-8.3-82-24.3-119.8zM681.1 531.8c-20.4 0-37.1-16.7-37.1-37.1v-55.1c0-20.4 16.6-37.1 37.1-37.1s37.1 16.7 37.1 37.1v55.1c0 20.5-16.7 37.1-37.1 37.1zM505.9 531.8c-20.5 0-37.1-16.7-37.1-37.1v-55.1c0-20.4 16.7-37.1 37.1-37.1 20.5 0 37.1 16.7 37.1 37.1v55.1c0 20.5-16.7 37.1-37.1 37.1z" />
<glyph unicode="&#xe880;" glyph-name="apple" d="M747.4 360.3c-0.4 68.2 30.5 119.6 92.9 157.5-34.9 50-87.7 77.5-157.3 82.8-65.9 5.2-138-38.4-164.4-38.4-27.9 0-91.7 36.6-141.9 36.6-103.6-1.6-213.7-82.6-213.7-247.4 0-48.7 8.9-99 26.7-150.8 23.8-68.2 109.6-235.3 199.1-232.6 46.8 1.1 79.9 33.2 140.8 33.2 59.1 0 89.7-33.2 141.9-33.2 90.3 1.3 167.9 153.2 190.5 221.6-121.1 57.1-114.6 167.2-114.6 170.7zM736.8 93.3c-14.3-19.9-28.7-35.6-41.9-45.7-10.5-8-18.6-11.4-24-11.6-9 0.1-17.7 2.3-34.7 8.8-1.2 0.5-2.5 1-4.2 1.6-0.8 0.3-3.9 1.5-4.4 1.7-17.4 6.7-27.8 10.3-41.1 13.8-18.6 4.8-37.1 7.4-56.9 7.4-20.2 0-39.2-2.5-58.1-7.2-13.9-3.5-25.6-7.4-42.7-13.8-0.7-0.3-8.1-3.1-10.2-3.9-3.5-1.3-6.2-2.3-8.7-3.2-10.4-3.6-17-5.1-22.9-5.2-0.7 0-1.3 0.1-1.8 0.2-1.1 0.2-2.5 0.6-4.1 1.3-4.5 1.8-9.9 5.1-16 9.8-14 10.9-29.4 28-45.1 49.9-27.5 38.6-53.5 89.8-66 125.7-15.4 44.8-23 87.7-23 128.6 0 60.2 17.8 106 48.4 137.1 26.3 26.6 61.7 41.5 97.8 42.3 5.9-0.1 14.5-1.5 25.4-4.5 8.6-2.3 18-5.4 30.7-9.9 3.8-1.4 16.9-6.1 18.5-6.7 7.7-2.8 13.5-4.8 19.2-6.6 18.2-5.8 32.3-9 47.6-9 15.5 0 28.8 3.3 47.7 9.8 7.1 2.4 32.9 12 37.5 13.6 25.6 9.1 44.5 14 60.8 15.2 4.8 0.4 9.1 0.4 13.2 0.1 22.7-1.8 42.1-6.3 58.6-13.8-37.6-43.4-57-96.5-56.9-158.4-0.3-14.7 0.9-31.7 5.1-51.8 6.4-30.5 18.6-60.7 37.9-89 14.7-21.5 32.9-40.9 54.7-57.8-11.5-23.7-25.6-48.2-40.4-68.8zM642.3 665.3c50.7 60.2 46.1 115 44.6 134.7-44.8-2.6-96.6-30.5-126.1-64.8-32.5-36.8-51.6-82.3-47.5-133.6 48.4-3.7 92.6 21.2 129 63.7z" />
<glyph unicode="&#xe881;" glyph-name="android" d="M448.3 670.8c-18.6 0-32-13.4-32-31.9s13.5-31.9 32-31.9c18.6 0 32 13.4 32 31.9 0.1 18.4-13.4 31.9-32 31.9zM842.2 574.4c-13.8 13.8-32.7 21.5-53.2 21.5-3.9 0-7.4-0.4-10.7-1v1h-3.6c-5.5 30.6-18.6 60.5-38.1 87.4-18.7 25.7-43 47.9-70.8 64.9l25.1 35.8v3.3c0 0.8 0.4 2.3 0.7 3.8 0.6 2.4 1.4 5.5 1.4 8.9 0 18.5-13.5 31.9-32 31.9-9.8 0-19.5-5.7-25.9-15.4l-29.3-42.1c-30 9.8-62.4 15-93.8 15-31.3 0-63.7-5.2-93.8-15l-29.2 42.2c-6.6 9.6-16.1 15.4-26 15.4-18.6 0-32-13.4-32-31.9 0-6.2 2.5-12.8 6.7-17.4l22.6-32.3c-28.7-17-53.5-39.4-72.2-65.1-19.4-26.9-32-56.8-36.7-87.4h-5.5v-1c-3.2 0.6-6.7 1-10.7 1-20.3 0-39.2-7.5-53.1-21.3-13.8-13.8-21.5-32.6-21.5-53v-235c0-20.3 7.5-39.1 21.4-52.9 13.8-13.8 32.8-21.5 53.2-21.5 3.9 0 7.4 0.4 10.7 1v-93.5c0-29.2 23.9-53.1 53.2-53.1h31.9v-58.3c0-20.3 7.5-39.1 21.4-52.9 13.8-13.8 32.8-21.5 53.2-21.5 20.3 0 39.2 7.5 53.1 21.3 13.8 13.8 21.5 32.6 21.5 53v58.2h63.8v-58.1c0-20.3 7.5-39.1 21.4-52.9 13.8-13.8 32.8-21.5 53.2-21.5s39.2 7.5 53.1 21.6c13.8 13.8 21.5 32.6 21.5 53v58.2h31.9c29.3 0 53.2 23.8 53.2 53.1v91.4c3.2-0.6 6.7-1 10.7-1 20.3 0 39.2 7.5 53.1 21.3 13.8 13.8 21.5 32.6 21.5 53v235c-0.1 20.3-7.6 39-21.4 52.9zM246 286.4c0-6.8-3.9-10.6-10.7-10.6s-10.7 3.8-10.7 10.6v235.1c0 6.8 3.9 10.6 10.7 10.6s10.7-3.8 10.7-10.6v-235.1zM377.1 683.2c37.5 27.3 85.3 42.3 135 42.3s97.5-15.1 135-42.5c32.4-23.7 54.2-54.2 62.7-87.5h-395.4c8.5 33.4 30.5 64 62.7 87.7zM416.4 8.5c-0.6-5.6-4.4-8.7-10.5-8.7-6.8 0-10.7 3.8-10.7 10.6v58.2h21.2v-60.1zM618.7-0.2c-6.8 0-10.7 3.8-10.7 10.6v58.2h21.2v-60.1c-0.6-5.6-4.3-8.7-10.5-8.7zM714.5 132.4h-404.6v399.6h404.6v-399.6zM799.7 286.4c0-6.8-3.9-10.6-10.7-10.6s-10.7 3.8-10.7 10.6v235.1c0 6.8 3.9 10.6 10.7 10.6s10.7-3.8 10.7-10.6v-235.1zM576.1 670.8c-18.6 0-32-13.4-32-31.9s13.5-31.9 32-31.9c18.6 0 32.1 13.4 32.1 32-0.1 18.6-13.4 31.8-32.1 31.8z" />
<glyph unicode="&#xe882;" glyph-name="windows" d="M120.1 125.4l322.9-52.6v279.4h-322.9v-226.8zM183.5 288.9h196.2v-141.6l-196.2 31.9v109.7zM523.8 62.4l382-62.2v352h-382v-289.8zM587.2 288.9h255.3v-214.4l-255.3 41.6v172.8zM523.8 704.6v-288.8h382v352.1l-382-63.3zM842.5 479.1h-255.2v171.9l255.3 42.3v-214.2zM120.1 415.8h322.9v278.3l-322.9-53.5v-224.8zM183.5 587l196.2 32.5v-140.4h-196.2v107.9z" />
<glyph unicode="&#xe883;" glyph-name="QQ" d="M824.8 282.8c-16 51.4-34.4 94.6-62.7 165.3 4.4 185.7-72.8 335.9-250.6 335.9-179.8 0-255.3-153.2-250.5-335.9-28.4-70.8-46.7-113.7-62.7-165.3-34-109.5-23-154.8-14.6-155.8 18-2.2 70.1 82.4 70.1 82.4 0-49 25.2-112.9 79.8-159-26.4-8.1-85.7-29.9-71.6-53.8 11.4-19.3 196.2-12.3 249.5-6.3 53.3-6 238.1-13 249.5 6.3 14.1 23.8-45.3 45.7-71.6 53.8 54.6 46.2 79.8 110.1 79.8 159 0 0 52.1-84.6 70.1-82.4 8.5 1.1 19.5 46.4-14.5 155.8z" />
<glyph unicode="&#xe884;" glyph-name="weibo" d="M457.3 353c-68.1 17.7-145-16.2-174.6-76.2-30.1-61.2-1-129.1 67.8-151.3 71.2-23 155.2 12.2 184.4 78.3 28.7 64.6-7.2 131-77.6 149.2zM405.3 196.8c-13.8-22.1-43.5-31.7-65.8-21.6-22 10-28.5 35.7-14.6 57.2 13.7 21.4 42.3 31 64.4 21.7 22.4-9.5 29.6-35 16-57.3zM450.8 255.3c-5-8.6-16.1-12.7-24.7-9.1-8.5 3.5-11.2 13.1-6.4 21.5 5 8.4 15.6 12.4 24.1 9.1 8.7-3.2 11.8-12.9 7-21.5zM785.3 452.5c15-4.8 31 3.4 35.9 18.3 11.8 36.6 4.4 78.4-23.2 109s-68.4 42.3-106 34.3c-15.4-3.3-25.2-18.4-21.9-33.8 3.3-15.3 18.4-25.2 33.8-21.8 18.4 3.9 38.3-1.8 51.9-16.7 13.5-15 17.2-35.4 11.3-53.3-4.9-15.1 3.2-31.1 18.2-36zM885.1 658.5c-56.7 62.9-140.4 86.9-217.7 70.5-17.9-3.8-29.3-21.4-25.4-39.3 3.8-17.9 21.4-29.3 39.3-25.5 55 11.7 114.4-5.4 154.8-50.1 40.3-44.7 51.2-105.7 34-159.1-5.6-17.4 3.9-36 21.3-41.7 17.4-5.6 36 3.9 41.6 21.2v0.1c24.1 75.4 8.9 161.1-47.9 223.9zM729 397c-12.2 3.6-20.5 6.1-14.1 22.1 13.8 34.7 15.2 64.7 0.3 86-28 40.1-104.8 37.9-192.8 1.1 0 0-27.6-12.1-20.6 9.8 13.5 43.5 11.5 79.9-9.6 101-47.7 47.8-174.6-1.8-283.5-110.6-81.4-81.5-128.7-167.9-128.7-242.6 0-142.9 183.2-229.8 362.5-229.8 235 0 391.3 136.5 391.3 245 0 65.5-55.2 102.6-104.8 118zM443 85.2c-143-14.1-266.5 50.5-275.8 144.5-9.3 93.9 99.2 181.5 242.2 195.6 143 14.2 266.5-50.5 275.8-144.4 9.2-93.9-99.2-181.5-242.2-195.7z" />
<glyph unicode="&#xe885;" glyph-name="wechat" d="M690.1 518.6c5.9 0 11.8-0.2 17.6-0.5-24.4 128.7-158.3 227.1-319.9 227.1-178.8 0-323.8-120.6-323.8-269.4 0-81.1 43.6-154.2 111.9-203.6 5.5-3.9 9.1-10.3 9.1-17.6 0-2.4-0.5-4.6-1.1-6.9-5.5-20.3-14.2-52.8-14.6-54.3-0.7-2.6-1.7-5.2-1.7-7.9 0-5.9 4.8-10.8 10.8-10.8 2.3 0 4.2 0.9 6.2 2l70.9 40.9c5.3 3.1 11 5 17.2 5 3.2 0 6.4-0.5 9.5-1.4 33.1-9.5 68.8-14.8 105.7-14.8 6 0 11.9 0.1 17.8 0.4-7.1 21-10.9 43.1-10.9 66 0 135.8 132.2 245.8 295.3 245.8zM495.8 605.1c23.8 0 43.2-19.3 43.2-43.1s-19.3-43.1-43.2-43.1c-23.8 0-43.2 19.3-43.2 43.1s19.4 43.1 43.2 43.1zM279.9 518.9c-23.8 0-43.2 19.3-43.2 43.1s19.3 43.1 43.2 43.1 43.2-19.3 43.2-43.1-19.4-43.1-43.2-43.1zM866.7 103.3c56.9 41.2 93.2 102 93.2 169.7 0 124-120.8 224.5-269.9 224.5-149 0-269.9-100.5-269.9-224.5s120.8-224.5 269.9-224.5c30.8 0 60.6 4.4 88.1 12.3 2.6 0.8 5.2 1.2 7.9 1.2 5.2 0 9.9-1.6 14.3-4.1l59.1-34c1.7-1 3.3-1.7 5.2-1.7 2.4 0 4.7 0.9 6.4 2.6s2.6 4 2.6 6.4c0 2.2-0.9 4.4-1.4 6.6-0.3 1.2-7.6 28.3-12.2 45.3-0.5 1.9-0.9 3.8-0.9 5.7 0.1 5.9 3.1 11.2 7.6 14.5zM600.2 308.8c-19.9 0-36 16.1-36 35.9s16.1 35.9 36 35.9 36-16.1 36-35.9c0-19.8-16.2-35.9-36-35.9zM780.1 308.8c-19.9 0-36 16.1-36 35.9s16.1 35.9 36 35.9 36-16.1 36-35.9c-0.1-19.8-16.2-35.9-36-35.9z" />
<glyph unicode="&#xe886;" glyph-name="github" d="M511.6 819.7c-247.3 0.1-447.6-200.1-447.6-447.2 0-195.4 125.3-361.5 299.8-422.5 23.5-5.9 19.9 10.8 19.9 22.2v77.5c-135.7-15.9-141.2 73.9-150.3 88.9-18.4 31.4-61.9 39.4-48.9 54.4 30.9 15.9 62.4-4 98.9-57.9 26.4-39.1 77.9-32.5 104-26 5.7 23.5 17.9 44.5 34.7 60.8-140.6 25.2-199.2 111-199.2 213 0 49.5 16.3 95 48.3 131.7-20.4 60.5 1.9 112.3 4.9 120 58.1 5.2 118.5-41.6 123.2-45.3 33 8.9 70.7 13.6 112.9 13.6 42.4 0 80.2-4.9 113.5-13.9 11.3 8.6 67.3 48.8 121.3 43.9 2.9-7.7 24.7-58.3 5.5-118 32.4-36.8 48.9-82.7 48.9-132.3 0-102.2-59-188.1-200-212.9 23.5-23.2 38.1-55.4 38.1-91v-112.5c0.8-9 0-17.9 15-17.9 177.1 59.7 304.6 227 304.6 424.1 0 247.2-200.4 447.3-447.5 447.3z" />
<glyph unicode="&#xe897;" glyph-name="zoom-out" d="M637 453h-312c-4.4 0-8-3.6-8-8v-60c0-4.4 3.6-8 8-8h312c4.4 0 8 3.6 8 8v60c0 4.4-3.6 8-8 8zM921 29l-146 146c122.1 148.9 113.6 369.5-26 509-148 148.1-388.4 148.1-537 0-148.1-148.6-148.1-389 0-537 139.5-139.6 360.1-148.1 509-26l146-146c3.2-2.8 8.3-2.8 11 0l43 43c2.8 2.7 2.8 7.8 0 11zM696 200c-118.8-118.7-311.2-118.7-430 0-118.7 118.8-118.7 311.2 0 430 118.8 118.7 311.2 118.7 430 0 118.7-118.8 118.7-311.2 0-430z" />
<glyph unicode="&#xe898;" glyph-name="zoom-in" d="M637 453h-118v134c0 4.4-3.6 8-8 8h-60c-4.4 0-8-3.6-8-8v-134h-118c-4.4 0-8-3.6-8-8v-60c0-4.4 3.6-8 8-8h118v-134c0-4.4 3.6-8 8-8h60c4.4 0 8 3.6 8 8v134h118c4.4 0 8 3.6 8 8v60c0 4.4-3.6 8-8 8zM921 29l-146 146c122.1 148.9 113.6 369.5-26 509-148 148.1-388.4 148.1-537 0-148.1-148.6-148.1-389 0-537 139.5-139.6 360.1-148.1 509-26l146-146c3.2-2.8 8.3-2.8 11 0l43 43c2.8 2.7 2.8 7.8 0 11zM696 200c-118.8-118.7-311.2-118.7-430 0-118.7 118.8-118.7 311.2 0 430 118.8 118.7 311.2 118.7 430 0 118.7-118.8 118.7-311.2 0-430z" />
<glyph unicode="&#xe8ec;" glyph-name="caret-down" d="M840.4 596h-656.8c-19.7 0-30.7-20.8-18.5-35l328.4-380.8c9.4-10.9 27.5-10.9 37 0l328.4 380.8c12.2 14.2 1.2 35-18.5 35z" />
<glyph unicode="&#xe8ed;" glyph-name="backward-to" d="M485.6 646.1l-287.4-248.1c-8.3-7.1-8.3-20.8 0-27.9l287.4-248.2c10.7-9.2 26.4-0.9 26.4 14v496.3c0 14.8-15.7 23.2-26.4 13.9zM805.6 646.1l-287.4-248.1c-4.1-3.6-6.2-8.8-6.2-14s2.1-10.4 6.2-14l287.4-248.2c10.7-9.2 26.4-0.9 26.4 14v496.4c0 14.8-15.7 23.2-26.4 13.9z" />
<glyph unicode="&#xe8ee;" glyph-name="caret-up" d="M858.9 207l-328.4 380.8c-9.4 10.9-27.5 10.9-37 0l-328.4-380.8c-12.2-14.2-1.2-35 18.5-35h656.8c19.7 0 30.7 20.8 18.5 35z" />
<glyph unicode="&#xe8ef;" glyph-name="search" d="M909.6 41.5l-259.7 259.7c40.3 52.1 62.1 115.8 62.1 182.8 0 80.2-31.3 155.4-87.9 212.1s-132 87.9-212.1 87.9-155.5-31.3-212.1-87.9c-56.7-56.6-87.9-131.9-87.9-212.1 0-80.1 31.3-155.5 87.9-212.1 56.6-56.7 131.9-87.9 212.1-87.9 67 0 130.6 21.8 182.7 62l259.7-259.6c3.2-3.2 8.4-3.2 11.6 0l43.6 43.5c3.2 3.2 3.2 8.4 0 11.6zM570.4 325.6c-42.4-42.3-98.6-65.6-158.4-65.6s-116 23.3-158.4 65.6c-42.3 42.4-65.6 98.6-65.6 158.4s23.3 116.1 65.6 158.4c42.4 42.3 98.6 65.6 158.4 65.6s116.1-23.2 158.4-65.6 65.6-98.6 65.6-158.4-23.3-116.1-65.6-158.4z" />
<glyph unicode="&#xe8f0;" glyph-name="caret-left" d="M689 730.9l-380.8-328.4c-10.9-9.4-10.9-27.5 0-37l380.8-328.4c14.2-12.2 35-1.2 35 18.5v656.8c0 19.7-20.8 30.7-35 18.5z" />
<glyph unicode="&#xe8f1;" glyph-name="fast-backward" d="M517.6 622.5l-287.4-225.8c-4.1-3.2-6.2-8-6.2-12.7s2.1-9.5 6.2-12.7l287.4-225.8c10.7-8.4 26.4-0.8 26.4 12.7v451.6c0 13.5-15.7 21.1-26.4 12.7zM837.6 622.5l-287.4-225.8c-4.1-3.2-6.2-8-6.2-12.7s2.1-9.5 6.2-12.7l287.4-225.8c10.7-8.4 26.4-0.8 26.4 12.7v451.6c0 13.5-15.7 21.1-26.4 12.7zM217.6 648h-51.2c-3.5 0-6.4-2.7-6.4-6v-516c0-3.3 2.9-6 6.4-6h51.2c3.5 0 6.4 2.7 6.4 6v516c0 3.3-2.9 6-6.4 6z" />
<glyph unicode="&#xe8f2;" glyph-name="forward-to" d="M825.8 398l-287.4 248.1c-10.7 9.2-26.4 0.9-26.4-14v-496.3c0-14.9 15.7-23.2 26.4-14l287.4 248.2c8.3 7.2 8.3 20.8 0 28zM505.8 398l-287.4 248.1c-10.7 9.2-26.4 0.9-26.4-14v-496.3c0-14.9 15.7-23.2 26.4-14l287.4 248.2c4.1 3.6 6.2 8.8 6.2 14s-2.1 10.4-6.2 14z" />
<glyph unicode="&#xe8f3;" glyph-name="fast-forward" d="M793.8 396.7l-287.4 225.8c-10.7 8.4-26.4 0.8-26.4-12.7v-451.6c0-13.5 15.7-21.1 26.4-12.7l287.4 225.8c4.1 3.2 6.2 8 6.2 12.7s-2.1 9.5-6.2 12.7zM473.8 396.7l-287.4 225.8c-10.7 8.4-26.4 0.8-26.4-12.7v-451.5c0-13.5 15.7-21.1 26.4-12.7l287.4 225.8c4.1 3.2 6.2 8 6.2 12.7 0 4.6-2.1 9.4-6.2 12.6zM857.6 648h-51.2c-3.5 0-6.4-2.7-6.4-6v-516c0-3.3 2.9-6 6.4-6h51.2c3.5 0 6.4 2.7 6.4 6v516c0 3.3-2.9 6-6.4 6z" />
<glyph unicode="&#xe8f4;" glyph-name="step-backward" d="M347.591 367.050l383.21-301.024c14.249-11.192 35.199-1.104 35.199 16.95v602.050c0 18.050-20.95 28.14-35.199 16.948l-383.21-301.023c-11.010-8.65-11.010-25.252 0-33.901M330 32h-64c-4.418 0-8 3.582-8 8v0 688c0 4.418 3.582 8 8 8v0h64c4.418 0 8-3.582 8-8v0-688c0-4.418-3.582-8-8-8v0" />
<glyph unicode="&#xe8f5;" glyph-name="step-forward" d="M676.409 367.050l-383.21-301.024c-14.249-11.192-35.199-1.104-35.199 16.95v602.050c0 18.050 20.95 28.14 35.199 16.948l383.21-301.023c11.010-8.65 11.010-25.252 0-33.901M694 32h64c4.418 0 8 3.582 8 8v0 688c0 4.418-3.582 8-8 8v0h-64c-4.418 0-8-3.582-8-8v0-688c0-4.418 3.582-8 8-8v0" />
<glyph unicode="&#xe8fe;" glyph-name="plus" d="M482 744h60q8 0 8-8v-704q0-8-8-8h-60q-8 0-8 8v704q0 8 8 8zM176 422h672q8 0 8-8v-60q0-8-8-8h-672q-8 0-8 8v60q0 8 8 8z" />
<glyph unicode="&#xe8ff;" glyph-name="eye-fill-o" d="M942.3 409.6l-0.2 0.2c-36.4 76.7-80 138.7-130.7 186l-142-142c9.3-21.4 14.4-45.1 14.4-69.9 0-97.2-78.8-176-176-176-24.8 0-48.5 5.1-69.9 14.4l-122-122c58.7-28.1 123.9-42.3 196.1-42.3 192.2 0 335.4 100.5 430.2 300.3 7.7 16.2 7.7 35 0.1 51.3zM878.3 741.8l-42.4 42.4c-3.1 3.1-8.2 3.1-11.3 0l-116.8-116.7c-58.4 28.3-123.6 42.5-195.8 42.5-192.2 0-335.4-100.5-430.2-300.3v-0.1c-7.7-16.2-7.7-35.2 0-51.5 36.4-76.7 80-138.7 130.7-186.1l-100.7-100.5c-3.1-3.1-3.1-8.2 0-11.3l42.4-42.4c3.1-3.1 8.2-3.1 11.3 0l712.8 712.8c3.1 3 3.1 8.1 0 11.2zM348.9 308.6c-10.8 22.9-16.9 48.4-16.9 75.4 0 97.2 78.8 176 176 176 27 0 52.5-6.1 75.4-16.9l-234.5-234.5z" />
<glyph unicode="&#xe900;" glyph-name="close-circle" d="M685.4 541.2c0 4.4-3.6 8-8 8l-66-0.3-99.4-118.5-99.3 118.4-66.1 0.3c-4.4 0-8-3.5-8-8 0-1.9 0.7-3.7 1.9-5.2l130.1-155-130.1-154.9c-1.2-1.5-1.9-3.3-1.9-5.2 0-4.4 3.6-8 8-8l66.1 0.3 99.3 118.5 99.3-118.4 66-0.3c4.4 0 8 3.5 8 8 0 1.9-0.7 3.7-1.9 5.2l-129.9 154.9 130.1 155c1.2 1.4 1.8 3.3 1.8 5.2zM512 831c-247.4 0-448-200.6-448-448s200.6-448 448-448 448 200.6 448 448-200.6 448-448 448zM512 11c-205.4 0-372 166.6-372 372s166.6 372 372 372 372-166.6 372-372-166.6-372-372-372z" />
<glyph unicode="&#xe901;" glyph-name="pause-circle" d="M512 832c-247.4 0-448-200.6-448-448s200.6-448 448-448 448 200.6 448 448-200.6 448-448 448zM512 12c-205.4 0-372 166.6-372 372s166.6 372 372 372 372-166.6 372-372-166.6-372-372-372zM424 544h-48c-4.4 0-8-3.6-8-8v-304c0-4.4 3.6-8 8-8h48c4.4 0 8 3.6 8 8v304c0 4.4-3.6 8-8 8zM648 544h-48c-4.4 0-8-3.6-8-8v-304c0-4.4 3.6-8 8-8h48c4.4 0 8 3.6 8 8v304c0 4.4-3.6 8-8 8z" />
<glyph unicode="&#xe902;" glyph-name="key" d="M608 784c-167.9 0-304-136.1-304-304 0-70.3 23.9-135 63.9-186.5l-41.1-41.1-62.3 62.3c-3.1 3.1-8.2 3.1-11.4 0l-39.8-39.8c-3.1-3.1-3.1-8.2 0-11.4l62.3-62.3-44.9-44.9-62.3 62.3c-3.1 3.1-8.2 3.1-11.4 0l-39.8-39.8c-3.1-3.1-3.1-8.2 0-11.4l62.3-62.3-65.3-65.3c-3.1-3.1-3.1-8.2 0-11.3l42.3-42.3c3.1-3.1 8.2-3.1 11.3 0l253.6 253.6c51.6-39.9 116.3-63.8 186.6-63.8 167.9 0 304 136.1 304 304s-136.1 304-304 304zM769.2 318.8c-43-43.1-100.3-66.8-161.2-66.8s-118.2 23.7-161.2 66.8c-43.1 43-66.8 100.3-66.8 161.2s23.7 118.2 66.8 161.2c43 43.1 100.3 66.8 161.2 66.8s118.2-23.7 161.2-66.8c43.1-43 66.8-100.3 66.8-161.2s-23.7-118.2-66.8-161.2z" />
<glyph unicode="&#xe903;" glyph-name="caret-right" d="M715.8 402.5l-380.8 328.4c-14.2 12.2-35 1.2-35-18.5v-656.8c0-19.7 20.8-30.7 35-18.5l380.8 328.4c10.9 9.4 10.9 27.6 0 37z" />
<glyph unicode="&#xe904;" glyph-name="eye-o" d="M942.3 409.6l-0.2 0.2c-36.4 76.7-80 138.7-130.7 186l-50.7-50.8c43.7-40.2 81.5-93.7 114.1-160.9-83.3-172.3-201.4-254.1-362.8-254.1-51.3 0-98.3 8.3-141.2 25.1l-54.7-54.7c58.5-28.2 123.7-42.4 195.9-42.4 192.2 0 335.4 100.5 430.2 300.3 7.7 16.2 7.7 35 0.1 51.3zM878.3 741.8l-42.4 42.4c-3.1 3.1-8.2 3.1-11.3 0l-116.8-116.7c-58.4 28.3-123.6 42.5-195.8 42.5-192.2 0-335.4-100.5-430.2-300.3v-0.1c-7.7-16.2-7.7-35.2 0-51.5 36.4-76.7 80-138.7 130.7-186.1l-100.7-100.5c-3.1-3.1-3.1-8.2 0-11.3l42.4-42.4c3.1-3.1 8.2-3.1 11.3 0l712.8 712.8c3.1 3 3.1 8.1 0 11.2zM398.9 358.6c-1.9 8.2-2.9 16.7-2.9 25.4 0 61.9 50.1 112 112 112 8.7 0 17.3-1 25.4-2.9l-134.5-134.5zM583.4 543.1c-22.9 10.8-48.4 16.9-75.4 16.9-97.2 0-176-78.8-176-176 0-27 6.1-52.5 16.9-75.4l-85.6-85.6c-43.7 40.2-81.5 93.7-114.1 160.9 83.4 172.3 201.5 254.1 362.8 254.1 51.3 0 98.3-8.3 141.2-25.1l-69.8-69.8zM508 272c-6.4 0-12.7 0.5-18.8 1.6l-51.1-51.1c21.4-9.3 45.1-14.4 69.9-14.4 97.2 0 176 78.8 176 176 0 24.8-5.1 48.5-14.4 69.9l-51.1-51.1c1-6.1 1.6-12.4 1.6-18.8-0.1-62-50.2-112.1-112.1-112.1z" />
<glyph unicode="&#xe90b;" glyph-name="droplet" d="M864.626 422.838c-65.754 183.44-205.11 348.15-352.626 473.162-147.516-125.012-286.87-289.722-352.626-473.162-40.664-113.436-44.682-236.562 12.584-345.4 65.846-125.14 198.632-205.438 340.042-205.438s274.196 80.298 340.040 205.44c57.27 108.838 53.25 231.962 12.586 345.398zM738.764 137.044c-43.802-83.252-132.812-137.044-226.764-137.044-55.12 0-108.524 18.536-152.112 50.652 13.242-1.724 26.632-2.652 40.112-2.652 117.426 0 228.668 67.214 283.402 171.242 44.878 85.292 40.978 173.848 23.882 244.338 14.558-28.15 26.906-56.198 36.848-83.932 22.606-63.062 40.024-156.34-5.368-242.604z" />
<glyph unicode="&#xe90d;" glyph-name="image" d="M959.884 768c0.040-0.034 0.082-0.076 0.116-0.116v-767.77c-0.034-0.040-0.076-0.082-0.116-0.116h-895.77c-0.040 0.034-0.082 0.076-0.114 0.116v767.772c0.034 0.040 0.076 0.082 0.114 0.114h895.77zM960 832h-896c-35.2 0-64-28.8-64-64v-768c0-35.2 28.8-64 64-64h896c35.2 0 64 28.8 64 64v768c0 35.2-28.8 64-64 64v0zM832 608c0-53.020-42.98-96-96-96s-96 42.98-96 96 42.98 96 96 96 96-42.98 96-96zM896 64h-768v128l224 384 256-320h64l224 192z" />
<glyph unicode="&#xe90e;" glyph-name="images" horiz-adv-x="1152" d="M1088 768h-64v64c0 35.2-28.8 64-64 64h-896c-35.2 0-64-28.8-64-64v-768c0-35.2 28.8-64 64-64h64v-64c0-35.2 28.8-64 64-64h896c35.2 0 64 28.8 64 64v768c0 35.2-28.8 64-64 64zM128 704v-640h-63.886c-0.040 0.034-0.082 0.076-0.114 0.116v767.77c0.034 0.040 0.076 0.082 0.114 0.114h895.77c0.040-0.034 0.082-0.076 0.116-0.116v-63.884h-768c-35.2 0-64-28.8-64-64v0zM1088-63.884c-0.034-0.040-0.076-0.082-0.116-0.116h-895.77c-0.040 0.034-0.082 0.076-0.114 0.116v767.77c0.034 0.040 0.076 0.082 0.114 0.114h895.77c0.040-0.034 0.082-0.076 0.116-0.116v-767.768zM960 544c0-53.020-42.98-96-96-96s-96 42.98-96 96 42.98 96 96 96 96-42.98 96-96zM1024 0h-768v128l224 384 256-320h64l224 192z" />
<glyph unicode="&#xe90f;" glyph-name="camera" d="M304 288c0-114.876 93.124-208 208-208s208 93.124 208 208-93.124 208-208 208-208-93.124-208-208zM960 640h-224c-16 64-32 128-96 128h-256c-64 0-80-64-96-128h-224c-35.2 0-64-28.8-64-64v-576c0-35.2 28.8-64 64-64h896c35.2 0 64 28.8 64 64v576c0 35.2-28.8 64-64 64zM512 4c-156.85 0-284 127.148-284 284 0 156.85 127.15 284 284 284 156.852 0 284-127.15 284-284 0-156.852-127.146-284-284-284zM960 448h-128v64h128v-64z" />
<glyph unicode="&#xe913;" glyph-name="film" d="M0 768v-768h1024v768h-1024zM192 64h-128v128h128v-128zM192 320h-128v128h128v-128zM192 576h-128v128h128v-128zM768 64h-512v640h512v-640zM960 64h-128v128h128v-128zM960 320h-128v128h128v-128zM960 576h-128v128h128v-128zM384 576v-384l256 192z" />
<glyph unicode="&#xe91b;" glyph-name="connection" horiz-adv-x="1280" d="M640 320c105.87 0 201.87-43.066 271.402-112.598l-90.468-90.468c-46.354 46.356-110.356 75.066-180.934 75.066s-134.578-28.71-180.934-75.066l-90.468 90.468c69.532 69.532 165.532 112.598 271.402 112.598zM187.452 388.548c120.88 120.88 281.598 187.452 452.548 187.452s331.668-66.572 452.55-187.452l-90.51-90.508c-96.706 96.704-225.28 149.96-362.040 149.96-136.762 0-265.334-53.256-362.038-149.962l-90.51 90.51zM988.784 761.562c106.702-45.132 202.516-109.728 284.782-191.996v0l-90.508-90.508c-145.056 145.056-337.92 224.942-543.058 224.942-205.14 0-398-79.886-543.058-224.942l-90.51 90.51c82.268 82.266 178.082 146.862 284.784 191.994 110.504 46.738 227.852 70.438 348.784 70.438s238.278-23.7 348.784-70.438zM576 0c0 35.346 28.654 64 64 64s64-28.654 64-64c0-35.346-28.654-64-64-64s-64 28.654-64 64z" />
<glyph unicode="&#xe91e;" glyph-name="mic" d="M480 192c88.366 0 160 71.634 160 160v384c0 88.366-71.634 160-160 160s-160-71.634-160-160v-384c0-88.366 71.636-160 160-160zM704 448v-96c0-123.71-100.29-224-224-224-123.712 0-224 100.29-224 224v96h-64v-96c0-148.238 112.004-270.3 256-286.22v-129.78h-128v-64h320v64h-128v129.78c143.994 15.92 256 137.982 256 286.22v96h-64z" />
<glyph unicode="&#xe91f;" glyph-name="book" d="M896 768v-832h-672c-53.026 0-96 42.98-96 96s42.974 96 96 96h608v768h-640c-70.398 0-128-57.6-128-128v-768c0-70.4 57.602-128 128-128h768v896h-64zM224.056 64v0c-0.018-0.002-0.038 0-0.056 0-17.672 0-32-14.326-32-32s14.328-32 32-32c0.018 0 0.038 0.002 0.056 0.002v-0.002h607.89v64h-607.89z" />
<glyph unicode="&#xe920;" glyph-name="books" horiz-adv-x="1152" d="M224 768h-192c-17.6 0-32-14.4-32-32v-704c0-17.6 14.4-32 32-32h192c17.6 0 32 14.4 32 32v704c0 17.6-14.4 32-32 32zM192 576h-128v64h128v-64zM544 768h-192c-17.6 0-32-14.4-32-32v-704c0-17.6 14.4-32 32-32h192c17.6 0 32 14.4 32 32v704c0 17.6-14.4 32-32 32zM512 576h-128v64h128v-64zM765.088 718.52l-171.464-86.394c-15.716-7.918-22.096-27.258-14.178-42.976l287.978-571.548c7.918-15.718 27.258-22.098 42.976-14.178l171.464 86.392c15.716 7.92 22.096 27.26 14.178 42.974l-287.978 571.55c-7.92 15.718-27.26 22.1-42.976 14.18z" />
<glyph unicode="&#xe924;" glyph-name="file" d="M917.806 666.924c-22.212 30.292-53.174 65.7-87.178 99.704s-69.412 64.964-99.704 87.178c-51.574 37.82-76.592 42.194-90.924 42.194h-496c-44.112 0-80-35.888-80-80v-864c0-44.112 35.888-80 80-80h736c44.112 0 80 35.888 80 80v624c0 14.332-4.372 39.35-42.194 90.924zM785.374 721.374c30.7-30.7 54.8-58.398 72.58-81.374h-153.954v153.946c22.984-17.78 50.678-41.878 81.374-72.572zM896-48c0-8.672-7.328-16-16-16h-736c-8.672 0-16 7.328-16 16v864c0 8.672 7.328 16 16 16 0 0 495.956 0.002 496 0v-224c0-17.672 14.326-32 32-32h224v-624z" />
<glyph unicode="&#xe925;" glyph-name="files" d="M917.806 538.924c-22.21 30.292-53.174 65.7-87.178 99.704s-69.412 64.964-99.704 87.178c-51.574 37.82-76.592 42.194-90.924 42.194h-368c-44.114 0-80-35.888-80-80v-736c0-44.112 35.886-80 80-80h608c44.112 0 80 35.888 80 80v496c0 14.332-4.372 39.35-42.194 90.924zM785.374 593.374c30.7-30.7 54.8-58.398 72.58-81.374h-153.954v153.946c22.982-17.78 50.678-41.878 81.374-72.572v0zM896-48c0-8.672-7.328-16-16-16h-608c-8.672 0-16 7.328-16 16v736c0 8.672 7.328 16 16 16 0 0 367.956 0.002 368 0v-224c0-17.672 14.324-32 32-32h224v-496zM602.924 853.804c-51.574 37.822-76.592 42.196-90.924 42.196h-368c-44.112 0-80-35.888-80-80v-736c0-38.632 27.528-70.958 64-78.39v814.39c0 8.672 7.328 16 16 16h486.876c-9.646 7.92-19.028 15.26-27.952 21.804z" />
<glyph unicode="&#xe926;" glyph-name="file-text" d="M917.806 666.924c-22.212 30.292-53.174 65.7-87.178 99.704s-69.412 64.964-99.704 87.178c-51.574 37.82-76.592 42.194-90.924 42.194h-496c-44.112 0-80-35.888-80-80v-864c0-44.112 35.888-80 80-80h736c44.112 0 80 35.888 80 80v624c0 14.332-4.372 39.35-42.194 90.924zM785.374 721.374c30.7-30.7 54.8-58.398 72.58-81.374h-153.954v153.946c22.984-17.78 50.678-41.878 81.374-72.572zM896-48c0-8.672-7.328-16-16-16h-736c-8.672 0-16 7.328-16 16v864c0 8.672 7.328 16 16 16 0 0 495.956 0.002 496 0v-224c0-17.672 14.326-32 32-32h224v-624zM736 64h-448c-17.672 0-32 14.326-32 32s14.328 32 32 32h448c17.674 0 32-14.326 32-32s-14.326-32-32-32zM736 192h-448c-17.672 0-32 14.326-32 32s14.328 32 32 32h448c17.674 0 32-14.326 32-32s-14.326-32-32-32zM736 320h-448c-17.672 0-32 14.326-32 32s14.328 32 32 32h448c17.674 0 32-14.326 32-32s-14.326-32-32-32z" />
<glyph unicode="&#xe928;" glyph-name="file-music" d="M917.806 666.924c-22.21 30.292-53.174 65.7-87.178 99.704s-69.412 64.964-99.704 87.178c-51.574 37.82-76.592 42.194-90.924 42.194h-496c-44.112 0-80-35.888-80-80v-864c0-44.112 35.886-80 80-80h736c44.112 0 80 35.888 80 80v624c0 14.332-4.372 39.35-42.194 90.924v0zM785.374 721.374c30.7-30.7 54.8-58.398 72.58-81.374h-153.954v153.946c22.982-17.78 50.678-41.878 81.374-72.572v0zM896-48c0-8.672-7.328-16-16-16h-736c-8.672 0-16 7.328-16 16v864c0 8.672 7.328 16 16 16 0 0 495.956 0.002 496 0v-224c0-17.672 14.324-32 32-32h224v-624zM756.288 504.748c-7.414 6.080-17.164 8.514-26.562 6.632l-320-64c-14.958-2.994-25.726-16.126-25.726-31.38v-236.876c-18.832 8.174-40.678 12.876-64 12.876-70.692 0-128-42.98-128-96s57.308-96 128-96 128 42.98 128 96v229.766l256 51.202v-133.842c-18.832 8.174-40.678 12.876-64 12.876-70.692 0-128-42.98-128-96s57.308-96 128-96 128 42.98 128 96v319.998c0 9.586-4.298 18.668-11.712 24.748z" />
<glyph unicode="&#xe929;" glyph-name="file-play" d="M384 512l320-224-320-224v448zM917.806 666.924c-22.212 30.292-53.174 65.7-87.178 99.704s-69.412 64.964-99.704 87.178c-51.574 37.82-76.592 42.194-90.924 42.194h-496c-44.112 0-80-35.888-80-80v-864c0-44.112 35.888-80 80-80h736c44.112 0 80 35.888 80 80v624c0 14.332-4.372 39.35-42.194 90.924zM785.374 721.374c30.7-30.7 54.8-58.398 72.58-81.374h-153.954v153.946c22.984-17.78 50.678-41.878 81.374-72.572zM896-48c0-8.672-7.328-16-16-16h-736c-8.672 0-16 7.328-16 16v864c0 8.672 7.328 16 16 16 0 0 495.956 0.002 496 0v-224c0-17.672 14.326-32 32-32h224v-624z" />
<glyph unicode="&#xe92a;" glyph-name="file-video" d="M917.806 666.924c-22.208 30.292-53.174 65.7-87.178 99.704s-69.412 64.964-99.704 87.178c-51.574 37.82-76.594 42.194-90.924 42.194h-496c-44.112 0-80-35.888-80-80v-864c0-44.112 35.882-80 80-80h736c44.112 0 80 35.888 80 80v624c0 14.332-4.372 39.35-42.194 90.924v0 0zM785.374 721.374c30.7-30.7 54.8-58.398 72.58-81.374h-153.954v153.946c22.98-17.78 50.678-41.878 81.374-72.572v0 0zM896-48c0-8.672-7.328-16-16-16h-736c-8.672 0-16 7.328-16 16v864c0 8.672 7.328 16 16 16 0 0 495.956 0.002 496 0v-224c0-17.672 14.32-32 32-32h224v-624zM256 384h320v-320h-320v320zM576 256l192 128v-320l-192 128z" />
<glyph unicode="&#xe92c;" glyph-name="copy" d="M640 640v256h-448l-192-192v-576h384v-256h640v768h-384zM192 805.49v-101.49h-101.49l101.49 101.49zM64 192v448h192v192h320v-192l-192-192v-256h-320zM576 549.49v-101.49h-101.49l101.49 101.49zM960-64h-512v448h192v192h320v-640z" />
<glyph unicode="&#xe92d;" glyph-name="paste" d="M704 768h-128v64c0 35.2-28.8 64-64 64h-128c-35.204 0-64-28.8-64-64v-64h-128v-128h512v128zM512 768h-128v63.886c0.034 0.038 0.072 0.078 0.114 0.114h127.768c0.042-0.036 0.082-0.076 0.118-0.114v-63.886zM832 576v160c0 17.6-14.4 32-32 32h-64v-64h32v-128h-192l-192-192v-256h-256v576h32v64h-64c-17.602 0-32-14.4-32-32v-640c0-17.6 14.398-32 32-32h288v-192h640v704h-192zM576 485.49v-101.49h-101.49l101.49 101.49zM960-64h-512v384h192v192h320v-576z" />
<glyph unicode="&#xe92f;" glyph-name="folder" d="M448 768l128-128h448v-704h-1024v832z" />
<glyph unicode="&#xe935;" glyph-name="price-tag" d="M976 896h-384c-26.4 0-63.274-15.274-81.942-33.942l-476.116-476.116c-18.668-18.668-18.668-49.214 0-67.882l412.118-412.118c18.668-18.668 49.214-18.668 67.882 0l476.118 476.118c18.666 18.666 33.94 55.54 33.94 81.94v384c0 26.4-21.6 48-48 48zM736 512c-53.020 0-96 42.98-96 96s42.98 96 96 96 96-42.98 96-96-42.98-96-96-96z" />
<glyph unicode="&#xe937;" glyph-name="barcode" d="M0 768h128v-640h-128zM192 768h64v-640h-64zM320 768h64v-640h-64zM512 768h64v-640h-64zM768 768h64v-640h-64zM960 768h64v-640h-64zM640 768h32v-640h-32zM448 768h32v-640h-32zM864 768h32v-640h-32zM0 64h64v-64h-64zM192 64h64v-64h-64zM320 64h64v-64h-64zM640 64h64v-64h-64zM960 64h64v-64h-64zM768 64h128v-64h-128zM448 64h128v-64h-128z" />
<glyph unicode="&#xe938;" glyph-name="qrcode" d="M320 832h-256v-256h256v256zM384 896v0-384h-384v384h384zM128 768h128v-128h-128zM960 832h-256v-256h256v256zM1024 896v0-384h-384v384h384zM768 768h128v-128h-128zM320 192h-256v-256h256v256zM384 256v0-384h-384v384h384zM128 128h128v-128h-128zM448 896h64v-64h-64zM512 832h64v-64h-64zM448 768h64v-64h-64zM512 704h64v-64h-64zM448 640h64v-64h-64zM512 576h64v-64h-64zM448 512h64v-64h-64zM448 384h64v-64h-64zM512 320h64v-64h-64zM448 256h64v-64h-64zM512 192h64v-64h-64zM448 128h64v-64h-64zM512 64h64v-64h-64zM448 0h64v-64h-64zM512-64h64v-64h-64zM960 384h64v-64h-64zM64 384h64v-64h-64zM128 448h64v-64h-64zM0 448h64v-64h-64zM256 448h64v-64h-64zM320 384h64v-64h-64zM384 448h64v-64h-64zM576 384h64v-64h-64zM640 448h64v-64h-64zM704 384h64v-64h-64zM768 448h64v-64h-64zM832 384h64v-64h-64zM896 448h64v-64h-64zM960 256h64v-64h-64zM576 256h64v-64h-64zM640 320h64v-64h-64zM704 256h64v-64h-64zM832 256h64v-64h-64zM896 320h64v-64h-64zM960 128h64v-64h-64zM576 128h64v-64h-64zM640 192h64v-64h-64zM768 192h64v-64h-64zM832 128h64v-64h-64zM896 192h64v-64h-64zM960 0h64v-64h-64zM640 64h64v-64h-64zM704 0h64v-64h-64zM768 64h64v-64h-64zM832 0h64v-64h-64zM640-64h64v-64h-64zM768-64h64v-64h-64zM896-64h64v-64h-64z" />
<glyph unicode="&#xe93a;" glyph-name="cart" d="M384-32c0-53.019-42.981-96-96-96s-96 42.981-96 96c0 53.019 42.981 96 96 96s96-42.981 96-96zM1024-32c0-53.019-42.981-96-96-96s-96 42.981-96 96c0 53.019 42.981 96 96 96s96-42.981 96-96zM1024 384v384h-768c0 35.346-28.654 64-64 64h-192v-64h128l48.074-412.054c-29.294-23.458-48.074-59.5-48.074-99.946 0-70.696 57.308-128 128-128h768v64h-768c-35.346 0-64 28.654-64 64 0 0.218 0.014 0.436 0.016 0.656l831.984 127.344z" />
<glyph unicode="&#xe93b;" glyph-name="coin-dollar" d="M480 832c-265.096 0-480-214.904-480-480 0-265.098 214.904-480 480-480 265.098 0 480 214.902 480 480 0 265.096-214.902 480-480 480zM480-32c-212.078 0-384 171.922-384 384s171.922 384 384 384c212.078 0 384-171.922 384-384s-171.922-384-384-384zM512 384v128h128v64h-128v64h-64v-64h-128v-256h128v-128h-128v-64h128v-64h64v64h128.002l-0.002 256h-128zM448 384h-64v128h64v-128zM576.002 192h-64.002v128h64.002v-128z" />
<glyph unicode="&#xe93c;" glyph-name="coin-euro" d="M480 832c-265.096 0-480-214.904-480-480s214.904-480 480-480c265.098 0 480 214.902 480 480s-214.902 480-480 480zM480-32c-212.078 0-384 171.922-384 384s171.922 384 384 384c212.076 0 384-171.922 384-384s-171.924-384-384-384zM670.824 251.66c-15.27 8.884-34.862 3.708-43.75-11.57-17.256-29.662-49.088-48.090-83.074-48.090h-128c-41.716 0-77.286 26.754-90.496 64h154.496c17.672 0 32 14.326 32 32s-14.328 32-32 32h-160v64h160c17.672 0 32 14.328 32 32s-14.328 32-32 32h-154.496c13.21 37.246 48.78 64 90.496 64h128c33.986 0 65.818-18.426 83.074-48.090 8.888-15.276 28.478-20.456 43.752-11.568 15.276 8.888 20.456 28.476 11.568 43.752-28.672 49.288-81.702 79.906-138.394 79.906h-128c-77.268 0-141.914-55.056-156.78-128h-35.22c-17.672 0-32-14.328-32-32s14.328-32 32-32h32v-64h-32c-17.672 0-32-14.326-32-32s14.328-32 32-32h35.22c14.866-72.944 79.512-128 156.78-128h128c56.692 0 109.72 30.62 138.394 79.91 8.888 15.276 3.708 34.864-11.57 43.75z" />
<glyph unicode="&#xe93d;" glyph-name="coin-pound" d="M480 832c-265.096 0-480-214.904-480-480s214.904-480 480-480c265.098 0 480 214.902 480 480s-214.902 480-480 480zM480-32c-212.078 0-384 171.922-384 384s171.922 384 384 384c212.074 0 384-171.922 384-384s-171.926-384-384-384zM608 192h-224v128h96c17.672 0 32 14.326 32 32s-14.328 32-32 32h-96v32c0 52.934 43.066 96 96 96 34.17 0 66.042-18.404 83.18-48.030 8.85-15.298 28.426-20.526 43.722-11.676 15.296 8.848 20.526 28.424 11.676 43.722-28.538 49.336-81.638 79.984-138.578 79.984-88.224 0-160-71.776-160-160v-32h-32c-17.672 0-32-14.326-32-32s14.328-32 32-32h32v-192h288c17.674 0 32 14.326 32 32s-14.326 32-32 32z" />
<glyph unicode="&#xe93e;" glyph-name="coin-yen" d="M480 832c-265.096 0-480-214.904-480-480s214.904-480 480-480c265.098 0 480 214.902 480 480s-214.902 480-480 480zM480-32c-212.078 0-384 171.922-384 384s171.922 384 384 384c212.076 0 384-171.922 384-384s-171.924-384-384-384zM608 320c17.674 0 32 14.326 32 32s-14.326 32-32 32h-68.208l94.832 142.25c9.804 14.704 5.83 34.572-8.876 44.376-14.704 9.802-34.572 5.83-44.376-8.876l-101.372-152.062-101.374 152.062c-9.804 14.706-29.672 18.68-44.376 8.876-14.706-9.804-18.678-29.672-8.876-44.376l94.834-142.25h-68.208c-17.672 0-32-14.326-32-32s14.328-32 32-32h96v-64h-96c-17.672 0-32-14.326-32-32s14.328-32 32-32h96v-96c0-17.674 14.328-32 32-32s32 14.326 32 32v96h96c17.674 0 32 14.326 32 32s-14.326 32-32 32h-96v64h96z" />
<glyph unicode="&#xe942;" glyph-name="phone" d="M704 256c-64-64-64-128-128-128s-128 64-192 128-128 128-128 192 64 64 128 128-128 256-192 256-192-192-192-192c0-128 131.5-387.5 256-512s384-256 512-256c0 0 192 128 192 192s-192 256-256 192z" />
<glyph unicode="&#xe945;" glyph-name="envelop" d="M928 768h-832c-52.8 0-96-43.2-96-96v-640c0-52.8 43.2-96 96-96h832c52.8 0 96 43.2 96 96v640c0 52.8-43.2 96-96 96zM398.74 345.628l-270.74-210.892v501.642l270.74-290.75zM176.38 640h671.24l-335.62-252-335.62 252zM409.288 334.302l102.712-110.302 102.71 110.302 210.554-270.302h-626.528l210.552 270.302zM625.26 345.628l270.74 290.75v-501.642l-270.74 210.892z" />
<glyph unicode="&#xe948;" glyph-name="location" d="M512 896c-176.732 0-320-143.268-320-320 0-320 320-704 320-704s320 384 320 704c0 176.732-143.27 320-320 320zM512 380c-108.248 0-196 87.752-196 196s87.752 196 196 196 196-87.752 196-196-87.752-196-196-196zM388 576c0 68.483 55.517 124 124 124s124-55.517 124-124c0-68.483-55.517-124-124-124s-124 55.517-124 124z" />
<glyph unicode="&#xe950;" glyph-name="alarm" d="M512 768c-247.424 0-448-200.576-448-448s200.576-448 448-448 448 200.576 448 448-200.576 448-448 448zM512-40c-198.824 0-360 161.178-360 360 0 198.824 161.176 360 360 360 198.822 0 360-161.176 360-360 0-198.822-161.178-360-360-360zM934.784 608.826c16.042 28.052 25.216 60.542 25.216 95.174 0 106.040-85.96 192-192 192-61.818 0-116.802-29.222-151.92-74.596 131.884-27.236 245.206-105.198 318.704-212.578v0zM407.92 821.404c-35.116 45.374-90.102 74.596-151.92 74.596-106.040 0-192-85.96-192-192 0-34.632 9.174-67.122 25.216-95.174 73.5 107.38 186.822 185.342 318.704 212.578zM512 320v256h-64v-320h256v64z" />
<glyph unicode="&#xe953;" glyph-name="calendar" d="M320 512h128v-128h-128zM512 512h128v-128h-128zM704 512h128v-128h-128zM128 128h128v-128h-128zM320 128h128v-128h-128zM512 128h128v-128h-128zM320 320h128v-128h-128zM512 320h128v-128h-128zM704 320h128v-128h-128zM128 320h128v-128h-128zM832 896v-64h-128v64h-448v-64h-128v64h-128v-1024h960v1024h-128zM896-64h-832v704h832v-704z" />
<glyph unicode="&#xe954;" glyph-name="printer" d="M256 832h512v-128h-512v128zM960 640h-896c-35.2 0-64-28.8-64-64v-320c0-35.2 28.794-64 64-64h192v-256h512v256h192c35.2 0 64 28.8 64 64v320c0 35.2-28.8 64-64 64zM128 448c-35.346 0-64 28.654-64 64s28.654 64 64 64 64-28.654 64-64-28.652-64-64-64zM704 0h-384v320h384v-320z" />
<glyph unicode="&#xe955;" glyph-name="keyboard" horiz-adv-x="1152" d="M1088 768h-1024c-35.2 0-64-28.8-64-64v-640c0-35.2 28.8-64 64-64h1024c35.2 0 64 28.8 64 64v640c0 35.2-28.8 64-64 64zM640 640h128v-128h-128v128zM832 448v-128h-128v128h128zM448 640h128v-128h-128v128zM640 448v-128h-128v128h128zM256 640h128v-128h-128v128zM448 448v-128h-128v128h128zM128 640h64v-128h-64v128zM128 448h128v-128h-128v128zM192 128h-64v128h64v-128zM768 128h-512v128h512v-128zM1024 128h-192v128h192v-128zM1024 320h-128v128h128v-128zM1024 512h-192v128h192v-128z" />
<glyph unicode="&#xe956;" glyph-name="display" d="M0 832v-640h1024v640h-1024zM960 256h-896v512h896v-512zM672 128h-320l-32-128-64-64h512l-64 64z" />
<glyph unicode="&#xe958;" glyph-name="mobile" d="M736 896h-448c-52.8 0-96-43.2-96-96v-832c0-52.8 43.2-96 96-96h448c52.8 0 96 43.2 96 96v832c0 52.8-43.2 96-96 96zM384 848h256v-32h-256v32zM512-64c-35.346 0-64 28.654-64 64s28.654 64 64 64 64-28.654 64-64-28.654-64-64-64zM768 128h-512v640h512v-640z" />
<glyph unicode="&#xe962;" glyph-name="save" d="M896 896h-896v-1024h1024v896l-128 128zM512 768h128v-256h-128v256zM896 0h-768v768h64v-320h576v320h74.978l53.022-53.018v-714.982z" />
<glyph unicode="&#xe964;" glyph-name="database" d="M512 896c-282.77 0-512-71.634-512-160v-128c0-88.366 229.23-160 512-160s512 71.634 512 160v128c0 88.366-229.23 160-512 160zM512 352c-282.77 0-512 71.634-512 160v-192c0-88.366 229.23-160 512-160s512 71.634 512 160v192c0-88.366-229.23-160-512-160zM512 64c-282.77 0-512 71.634-512 160v-192c0-88.366 229.23-160 512-160s512 71.634 512 160v192c0-88.366-229.23-160-512-160z" />
<glyph unicode="&#xe967;" glyph-name="undo" d="M761.862-128c113.726 206.032 132.888 520.306-313.862 509.824v-253.824l-384 384 384 384v-248.372c534.962 13.942 594.57-472.214 313.862-775.628z" />
<glyph unicode="&#xe968;" glyph-name="redo" d="M576 647.628v248.372l384-384-384-384v253.824c-446.75 10.482-427.588-303.792-313.86-509.824-280.712 303.414-221.1 789.57 313.86 775.628z" />
<glyph unicode="&#xe969;" glyph-name="forward" d="M262.14 896c-113.728-206.032-132.89-520.304 313.86-509.824v253.824l384-384-384-384v248.372c-534.96-13.942-594.572 472.214-313.86 775.628z" />
<glyph unicode="&#xe96a;" glyph-name="reply" d="M448 120.372v-248.372l-384 384 384 384v-253.824c446.75-10.48 427.588 303.792 313.862 509.824 280.71-303.414 221.1-789.57-313.862-775.628z" />
<glyph unicode="&#xe984;" glyph-name="spinner" d="M1024 512h-384l143.53 143.53c-72.53 72.526-168.96 112.47-271.53 112.47s-199-39.944-271.53-112.47c-72.526-72.53-112.47-168.96-112.47-271.53s39.944-199 112.47-271.53c72.53-72.526 168.96-112.47 271.53-112.47s199 39.944 271.528 112.472c6.056 6.054 11.86 12.292 17.456 18.668l96.32-84.282c-93.846-107.166-231.664-174.858-385.304-174.858-282.77 0-512 229.23-512 512s229.23 512 512 512c141.386 0 269.368-57.326 362.016-149.984l149.984 149.984v-384z" />
<glyph unicode="&#xe989;" glyph-name="enlarge-full" d="M1024 896h-416l160-160-192-192 96-96 192 192 160-160zM1024-128v416l-160-160-192 192-96-96 192-192-160-160zM0-128h416l-160 160 192 192-96 96-192-192-160 160zM0 896v-416l160 160 192-192 96 96-192 192 160 160z" />
<glyph unicode="&#xe98a;" glyph-name="shrink-full" d="M576 448h416l-160 160 192 192-96 96-192-192-160 160zM576 320v-416l160 160 192-192 96 96-192 192 160 160zM448 320.004h-416l160-160-192-192 96-96 192 192 160-160zM448 448v416l-160-160-192 192-96-96 192-192-160-160z" />
<glyph unicode="&#xe98b;" glyph-name="enlarge" d="M1024 896v-416l-160 160-192-192-96 96 192 192-160 160zM448 224l-192-192 160-160h-416v416l160-160 192 192z" />
<glyph unicode="&#xe98c;" glyph-name="shrink" d="M448 320v-416l-160 160-192-192-96 96 192 192-160 160zM1024 800l-192-192 160-160h-416v416l160-160 192 192z" />
<glyph unicode="&#xe99f;" glyph-name="gift" d="M771.516 576c18.126 12.88 35.512 27.216 51.444 43.148 33.402 33.402 55.746 74.5 62.912 115.722 7.858 45.186-3.672 87.14-31.63 115.1-22.3 22.298-52.51 34.086-87.364 34.086-49.632 0-101.922-23.824-143.46-65.362-66.476-66.476-105.226-158.238-126.076-223.722-15.44 65.802-46.206 154.644-106.018 214.458-32.094 32.092-73.114 48.57-111.846 48.57-31.654 0-61.78-11.004-84.26-33.486-49.986-49.988-43.232-137.786 15.086-196.104 20.792-20.792 45.098-38.062 70.72-52.412h-217.024v-256h64v-448h768v448.002h64v256h-188.484zM674.326 767.782c27.724 27.724 62.322 44.274 92.55 44.274 10.7 0 25.708-2.254 36.45-12.998 26.030-26.028 11.412-86.308-31.28-128.998-43.946-43.946-103.060-74.168-154.432-94.060h-50.672c18.568 57.548 52.058 136.456 107.384 191.782zM233.934 735.11c-0.702 9.12-0.050 26.248 12.196 38.494 10.244 10.244 23.788 12.396 33.348 12.396v0c21.258 0 43.468-10.016 60.932-27.48 33.872-33.872 61.766-87.772 80.668-155.876 0.51-1.84 1.008-3.67 1.496-5.486-1.816 0.486-3.646 0.984-5.486 1.496-68.104 18.904-122.002 46.798-155.874 80.67-15.828 15.826-25.77 36.16-27.28 55.786zM448-64h-256v416h256v-416zM448 384h-320v128h320v-128zM832-64h-256v416h256v-416zM896 384h-320v128h320v-128z" />
<glyph unicode="&#xe9a5;" glyph-name="rocket" d="M704 832l-320-320h-192l-192-256c0 0 203.416 56.652 322.066 30.084l-322.066-414.084 421.902 328.144c58.838-134.654-37.902-328.144-37.902-328.144l256 192v192l320 320 64 320-320-64z" />
<glyph unicode="&#xe9b5;" glyph-name="power" d="M384 896l-384-512h384l-256-512 896 640h-512l384 384z" />
<glyph unicode="&#xe9b6;" glyph-name="switch" d="M640 749.412v-135.958c36.206-15.804 69.5-38.408 98.274-67.18 60.442-60.44 93.726-140.8 93.726-226.274s-33.286-165.834-93.726-226.274c-60.44-60.44-140.798-93.726-226.274-93.726s-165.834 33.286-226.274 93.726c-60.44 60.44-93.726 140.8-93.726 226.274s33.286 165.834 93.726 226.274c28.774 28.774 62.068 51.378 98.274 67.182v135.956c-185.048-55.080-320-226.472-320-429.412 0-247.424 200.578-448 448-448 247.424 0 448 200.576 448 448 0 202.94-134.95 374.332-320 429.412zM448 896h128v-512h-128z" />
<glyph unicode="&#xe9b9;" glyph-name="ordered-list" d="M384 64h640v-128h-640zM384 448h640v-128h-640zM384 832h640v-128h-640zM192 896v-256h-64v192h-64v64zM128 370v-50h128v-64h-192v146l128 60v50h-128v64h192v-146zM256 192v-320h-192v64h128v64h-128v64h128v64h-128v64z" />
<glyph unicode="&#xe9bb;" glyph-name="unordered-list" d="M384 832h640v-128h-640v128zM384 448h640v-128h-640v128zM384 64h640v-128h-640v128zM0 768c0 70.692 57.308 128 128 128s128-57.308 128-128c0-70.692-57.308-128-128-128s-128 57.308-128 128zM0 384c0 70.692 57.308 128 128 128s128-57.308 128-128c0-70.692-57.308-128-128-128s-128 57.308-128 128zM0 0c0 70.692 57.308 128 128 128s128-57.308 128-128c0-70.692-57.308-128-128-128s-128 57.308-128 128z" />
<glyph unicode="&#xe9bc;" glyph-name="tree" d="M976 128h-16v208c0 61.756-50.242 112-112 112h-272v128h16c26.4 0 48 21.6 48 48v160c0 26.4-21.6 48-48 48h-160c-26.4 0-48-21.6-48-48v-160c0-26.4 21.6-48 48-48h16v-128h-272c-61.756 0-112-50.244-112-112v-208h-16c-26.4 0-48-21.6-48-48v-160c0-26.4 21.6-48 48-48h160c26.4 0 48 21.6 48 48v160c0 26.4-21.6 48-48 48h-16v192h256v-192h-16c-26.4 0-48-21.6-48-48v-160c0-26.4 21.6-48 48-48h160c26.4 0 48 21.6 48 48v160c0 26.4-21.6 48-48 48h-16v192h256v-192h-16c-26.4 0-48-21.6-48-48v-160c0-26.4 21.6-48 48-48h160c26.4 0 48 21.6 48 48v160c0 26.4-21.6 48-48 48zM192-64h-128v128h128v-128zM576-64h-128v128h128v-128zM448 640v128h128v-128h-128zM960-64h-128v128h128v-128z" />
<glyph unicode="&#xe9c5;" glyph-name="download" d="M896 384h-160l-224-224-224 224h-160l-128-256v-64h1024v64l-128 256zM0 0h1024v-64h-1024v64zM576 576v256h-128v-256h-224l288-288 288 288h-224z" />
<glyph unicode="&#xe9c6;" glyph-name="upload" d="M0 0h1024v-64h-1024zM1024 128v-64h-1024v64l128 256h256v-128h256v128h256zM224 576l288 288 288-288h-224v-256h-128v256z" />
<glyph unicode="&#xe9ca;" glyph-name="earth" d="M512 896c-282.77 0-512-229.23-512-512s229.23-512 512-512 512 229.23 512 512-229.23 512-512 512zM512-64.002c-62.958 0-122.872 13.012-177.23 36.452l233.148 262.29c5.206 5.858 8.082 13.422 8.082 21.26v96c0 17.674-14.326 32-32 32-112.99 0-232.204 117.462-233.374 118.626-6 6.002-14.14 9.374-22.626 9.374h-128c-17.672 0-32-14.328-32-32v-192c0-12.122 6.848-23.202 17.69-28.622l110.31-55.156v-187.886c-116.052 80.956-192 215.432-192 367.664 0 68.714 15.49 133.806 43.138 192h116.862c8.488 0 16.626 3.372 22.628 9.372l128 128c6 6.002 9.372 14.14 9.372 22.628v77.412c40.562 12.074 83.518 18.588 128 18.588 70.406 0 137.004-16.26 196.282-45.2-4.144-3.502-8.176-7.164-12.046-11.036-36.266-36.264-56.236-84.478-56.236-135.764s19.97-99.5 56.236-135.764c36.434-36.432 85.218-56.264 135.634-56.26 3.166 0 6.342 0.080 9.518 0.236 13.814-51.802 38.752-186.656-8.404-372.334-0.444-1.744-0.696-3.488-0.842-5.224-81.324-83.080-194.7-134.656-320.142-134.656z" />
<glyph unicode="&#xe9cb;" glyph-name="link" d="M440.236 260.234c-13.31 0-26.616 5.076-36.77 15.23-95.134 95.136-95.134 249.934 0 345.070l192 192c46.088 46.086 107.36 71.466 172.534 71.466s126.448-25.38 172.536-71.464c95.132-95.136 95.132-249.934 0-345.070l-87.766-87.766c-20.308-20.308-53.23-20.308-73.54 0-20.306 20.306-20.306 53.232 0 73.54l87.766 87.766c54.584 54.586 54.584 143.404 0 197.99-26.442 26.442-61.6 41.004-98.996 41.004s-72.552-14.562-98.996-41.006l-192-191.998c-54.586-54.586-54.586-143.406 0-197.992 20.308-20.306 20.306-53.232 0-73.54-10.15-10.152-23.462-15.23-36.768-15.23zM256-116c-65.176 0-126.45 25.38-172.534 71.464-95.134 95.136-95.134 249.934 0 345.070l87.764 87.764c20.308 20.306 53.234 20.306 73.54 0 20.308-20.306 20.308-53.232 0-73.54l-87.764-87.764c-54.586-54.586-54.586-143.406 0-197.992 26.44-26.44 61.598-41.002 98.994-41.002s72.552 14.562 98.998 41.006l192 191.998c54.584 54.586 54.584 143.406 0 197.992-20.308 20.308-20.306 53.232 0 73.54 20.306 20.306 53.232 20.306 73.54-0.002 95.132-95.134 95.132-249.932 0.002-345.068l-192.002-192c-46.090-46.088-107.364-71.466-172.538-71.466z" />
<glyph unicode="&#xe9d7;" glyph-name="star-empty" d="M1024 498.95l-353.78 51.408-158.22 320.582-158.216-320.582-353.784-51.408 256-249.538-60.432-352.352 316.432 166.358 316.432-166.358-60.434 352.352 256.002 249.538zM512 142.502l-223.462-117.48 42.676 248.83-180.786 176.222 249.84 36.304 111.732 226.396 111.736-226.396 249.836-36.304-180.788-176.222 42.678-248.83-223.462 117.48z" />
<glyph unicode="&#xe9d8;" glyph-name="star-half" d="M1024 498.95l-353.78 51.408-158.22 320.582-158.216-320.582-353.784-51.408 256-249.538-60.432-352.352 316.432 166.358 316.432-166.358-60.434 352.352 256.002 249.538zM512 142.502l-0.942-0.496 0.942 570.768 111.736-226.396 249.836-36.304-180.788-176.222 42.678-248.83-223.462 117.48z" />
<glyph unicode="&#xe9d9;" glyph-name="star-full" d="M1024 498.95l-353.78 51.408-158.22 320.582-158.216-320.582-353.784-51.408 256-249.538-60.432-352.352 316.432 166.358 316.432-166.358-60.434 352.352 256.002 249.538z" />
<glyph unicode="&#xe9da;" glyph-name="heart" d="M755.188 832c-107.63 0-200.258-87.554-243.164-179-42.938 91.444-135.578 179-243.216 179-148.382 0-268.808-120.44-268.808-268.832 0-301.846 304.5-380.994 512.022-679.418 196.154 296.576 511.978 387.206 511.978 679.418 0 148.392-120.43 268.832-268.812 268.832z" />
<glyph unicode="&#xe9db;" glyph-name="heart-broken" d="M755.188 832c148.382 0 268.812-120.44 268.812-268.832 0-292.21-315.824-382.842-511.978-679.418-207.522 298.424-512.022 377.572-512.022 679.418 0 148.392 120.426 268.832 268.808 268.832 60.354 0 115.99-27.53 160.796-67.834l-77.604-124.166 224-128-128-320 352 384-224 128 61.896 92.846c35.42 21.768 75.21 35.154 117.292 35.154z" />
<glyph unicode="&#xea15;" glyph-name="play" d="M512 896c-282.77 0-512-229.23-512-512s229.23-512 512-512 512 229.23 512 512-229.23 512-512 512zM512-32c-229.75 0-416 186.25-416 416s186.25 416 416 416 416-186.25 416-416-186.25-416-416-416zM384 608l384-224-384-224z" />
<glyph unicode="&#xea16;" glyph-name="pause" d="M512 896c-282.77 0-512-229.23-512-512s229.23-512 512-512 512 229.23 512 512-229.23 512-512 512zM512-32c-229.75 0-416 186.25-416 416s186.25 416 416 416 416-186.25 416-416-186.25-416-416-416zM320 576h128v-384h-128zM576 576h128v-384h-128z" />
<glyph unicode="&#xea17;" glyph-name="stop" d="M512 896c-282.77 0-512-229.23-512-512s229.23-512 512-512 512 229.23 512 512-229.23 512-512 512zM512-32c-229.75 0-416 186.25-416 416s186.25 416 416 416 416-186.25 416-416-186.25-416-416-416zM320 576h384v-384h-384z" />
<glyph unicode="&#xea18;" glyph-name="previous" d="M512 896c-282.77 0-512-229.23-512-512s229.23-512 512-512 512 229.23 512 512-229.23 512-512 512zM512-32c-229.75 0-416 186.25-416 416s186.25 416 416 416 416-186.25 416-416-186.25-416-416-416zM448 384l256 192v-384zM320 576h128v-384h-128v384z" />
<glyph unicode="&#xea19;" glyph-name="next" d="M512 896c282.77 0 512-229.23 512-512s-229.23-512-512-512-512 229.23-512 512 229.23 512 512 512zM512-32c229.75 0 416 186.25 416 416s-186.25 416-416 416-416-186.25-416-416 186.25-416 416-416zM576 384l-256 192v-384zM704 576h-128v-384h128v384z" />
<glyph unicode="&#xea1a;" glyph-name="go-backward" d="M512-128c282.77 0 512 229.23 512 512s-229.23 512-512 512-512-229.23-512-512 229.23-512 512-512zM512 800c229.75 0 416-186.25 416-416s-186.25-416-416-416-416 186.25-416 416 186.25 416 416 416zM704 224l-224 160 224 160zM448 224l-224 160 224 160z" />
<glyph unicode="&#xea1b;" glyph-name="go-forward" d="M512 896c-282.77 0-512-229.23-512-512s229.23-512 512-512 512 229.23 512 512-229.23 512-512 512zM512-32c-229.75 0-416 186.25-416 416s186.25 416 416 416 416-186.25 416-416-186.25-416-416-416zM320 544l224-160-224-160zM576 544l224-160-224-160z" />
<glyph unicode="&#xea27;" glyph-name="volume-medium" d="M719.53 64.47c-12.286 0-24.566 4.686-33.942 14.056-18.744 18.744-18.744 49.136 0 67.882 131.006 131.006 131.006 344.17 0 475.176-18.744 18.746-18.744 49.138 0 67.882 18.744 18.742 49.138 18.744 67.882 0 81.594-81.59 126.53-190.074 126.53-305.466 0-115.39-44.936-223.876-126.53-305.47-9.372-9.374-21.656-14.060-33.94-14.060v0zM549.020 154.98c-12.286 0-24.566 4.686-33.942 14.058-18.746 18.746-18.746 49.134 0 67.88 81.1 81.1 81.1 213.058 0 294.156-18.746 18.746-18.746 49.138 0 67.882s49.136 18.744 67.882 0c118.53-118.53 118.53-311.392 0-429.922-9.372-9.368-21.656-14.054-33.94-14.054zM416.006-64c-8.328 0-16.512 3.25-22.634 9.374l-246.626 246.626h-114.746c-17.672 0-32 14.326-32 32v320c0 17.672 14.328 32 32 32h114.746l246.626 246.628c9.154 9.154 22.916 11.89 34.874 6.936 11.958-4.952 19.754-16.622 19.754-29.564v-832c0-12.944-7.796-24.612-19.754-29.564-3.958-1.64-8.118-2.436-12.24-2.436z" />
<glyph unicode="&#xea29;" glyph-name="volume-mute" d="M416.006-64c-8.328 0-16.512 3.25-22.634 9.374l-246.626 246.626h-114.746c-17.672 0-32 14.326-32 32v320c0 17.672 14.328 32 32 32h114.746l246.626 246.628c9.154 9.154 22.916 11.89 34.874 6.936 11.958-4.952 19.754-16.622 19.754-29.564v-832c0-12.944-7.796-24.612-19.754-29.564-3.958-1.64-8.118-2.436-12.24-2.436z" />
<glyph unicode="&#xea2a;" glyph-name="volume-mute-o" d="M960 276.852v-84.852h-84.852l-107.148 107.148-107.148-107.148h-84.852v84.852l107.148 107.148-107.148 107.148v84.852h84.852l107.148-107.148 107.148 107.148h84.852v-84.852l-107.148-107.148 107.148-107.148zM416.006-64c-8.328 0-16.512 3.25-22.634 9.374l-246.626 246.626h-114.746c-17.672 0-32 14.326-32 32v320c0 17.672 14.328 32 32 32h114.746l246.626 246.628c9.154 9.154 22.916 11.89 34.874 6.936 11.958-4.952 19.754-16.622 19.754-29.564v-832c0-12.944-7.796-24.612-19.754-29.564-3.958-1.64-8.118-2.436-12.24-2.436z" />
<glyph unicode="&#xea39;" glyph-name="arrow-up-left" d="M877.254 109.254l-530.744 530.746h229.49c35.346 0 64 28.654 64 64s-28.654 64-64 64h-384c-25.886 0-49.222-15.592-59.128-39.508-3.282-7.924-4.84-16.242-4.838-24.492h-0.034v-384c0-35.346 28.654-64 64-64s64 28.654 64 64v229.49l530.746-530.744c12.496-12.498 28.876-18.746 45.254-18.746s32.758 6.248 45.254 18.746c24.994 24.992 24.994 65.516 0 90.508z" />
<glyph unicode="&#xea3a;" glyph-name="arrow-up" d="M877.254 493.254l-320 320c-24.992 24.994-65.514 24.994-90.508 0l-320-320c-24.994-24.994-24.994-65.516 0-90.51 24.994-24.996 65.516-24.996 90.51 0l210.744 210.746v-613.49c0-35.346 28.654-64 64-64s64 28.654 64 64v613.49l210.746-210.746c12.496-12.496 28.876-18.744 45.254-18.744s32.758 6.248 45.254 18.746c24.994 24.994 24.994 65.514 0 90.508z" />
<glyph unicode="&#xea3b;" glyph-name="arrow-up-right" d="M237.254 18.746l530.746 530.744v-229.49c0-35.346 28.654-64 64-64s64 28.654 64 64v384c0 25.884-15.594 49.222-39.508 59.126-7.924 3.284-16.242 4.84-24.492 4.838v0.036h-384c-35.346 0-64-28.654-64-64 0-35.348 28.654-64 64-64h229.49l-530.744-530.746c-12.498-12.496-18.746-28.876-18.746-45.254s6.248-32.758 18.746-45.254c24.992-24.994 65.516-24.994 90.508 0z" />
<glyph unicode="&#xea3c;" glyph-name="arrow-right" d="M621.254 18.746l320 320c24.994 24.992 24.994 65.516 0 90.51l-320 320c-24.994 24.992-65.516 24.992-90.51 0-24.994-24.994-24.994-65.516 0-90.51l210.746-210.746h-613.49c-35.346 0-64-28.654-64-64s28.654-64 64-64h613.49l-210.746-210.746c-12.496-12.496-18.744-28.876-18.744-45.254s6.248-32.758 18.744-45.254c24.994-24.994 65.516-24.994 90.51 0z" />
<glyph unicode="&#xea3d;" glyph-name="arrow-down-right" d="M146.746 658.746l530.742-530.746h-229.488c-35.346 0-64-28.654-64-64s28.654-64 64-64h384c25.884 0 49.222 15.594 59.126 39.508 3.284 7.924 4.84 16.242 4.838 24.492h0.036v384c0 35.346-28.654 64-64 64-35.348 0-64-28.654-64-64v-229.49l-530.746 530.744c-12.496 12.498-28.874 18.746-45.254 18.746s-32.758-6.248-45.254-18.746c-24.994-24.992-24.994-65.516 0-90.508z" />
<glyph unicode="&#xea3e;" glyph-name="arrow-down" d="M877.254 274.746l-320-320c-24.992-24.994-65.514-24.994-90.508 0l-320 320c-24.994 24.994-24.994 65.516 0 90.51 24.994 24.996 65.516 24.996 90.51 0l210.744-210.746v613.49c0 35.346 28.654 64 64 64s64-28.654 64-64v-613.49l210.746 210.746c12.496 12.496 28.876 18.744 45.254 18.744s32.758-6.248 45.254-18.746c24.994-24.994 24.994-65.514 0-90.508z" />
<glyph unicode="&#xea3f;" glyph-name="arrow-down-left" d="M786.744 749.256l-530.744-530.744v229.49c0 35.346-28.654 64-64 64s-64-28.654-64-64v-384.002c0-25.886 15.592-49.222 39.508-59.128 7.924-3.282 16.242-4.84 24.492-4.836v-0.036l384 0.002c35.344 0 64 28.654 64 63.998 0 35.348-28.656 64-64 64h-229.49l530.744 530.746c12.496 12.496 18.746 28.876 18.746 45.256 0 16.376-6.25 32.758-18.746 45.254-24.992 24.992-65.518 24.992-90.51 0v0z" />
<glyph unicode="&#xea40;" glyph-name="arrow-left" d="M402.746 18.746l-320 320c-24.994 24.992-24.994 65.516 0 90.51l320 320c24.994 24.992 65.516 24.992 90.51 0 24.994-24.994 24.994-65.516 0-90.51l-210.746-210.746h613.49c35.346 0 64-28.654 64-64s-28.654-64-64-64h-613.49l210.746-210.746c12.496-12.496 18.744-28.876 18.744-45.254s-6.248-32.758-18.744-45.254c-24.994-24.994-65.516-24.994-90.51 0z" />
<glyph unicode="&#xea41;" glyph-name="circle-up" d="M0 384c0-282.77 229.23-512 512-512s512 229.23 512 512-229.23 512-512 512-512-229.23-512-512zM928 384c0-229.75-186.25-416-416-416s-416 186.25-416 416 186.25 416 416 416 416-186.25 416-416zM706.744 226.744l90.512 90.512-285.256 285.254-285.254-285.256 90.508-90.508 194.746 194.744z" />
<glyph unicode="&#xea42;" glyph-name="circle-right" d="M512 896c-282.77 0-512-229.23-512-512s229.23-512 512-512 512 229.23 512 512-229.23 512-512 512zM512-32c-229.75 0-416 186.25-416 416s186.25 416 416 416 416-186.25 416-416-186.25-416-416-416zM354.744 189.256l90.512-90.512 285.254 285.256-285.256 285.254-90.508-90.508 194.744-194.746z" />
<glyph unicode="&#xea43;" glyph-name="circle-down" d="M1024 384c0 282.77-229.23 512-512 512s-512-229.23-512-512 229.23-512 512-512 512 229.23 512 512zM96 384c0 229.75 186.25 416 416 416s416-186.25 416-416-186.25-416-416-416-416 186.25-416 416zM317.256 541.256l-90.512-90.512 285.256-285.254 285.254 285.256-90.508 90.508-194.746-194.744z" />
<glyph unicode="&#xea44;" glyph-name="circle-left" d="M512-128c282.77 0 512 229.23 512 512s-229.23 512-512 512-512-229.23-512-512 229.23-512 512-512zM512 800c229.75 0 416-186.25 416-416s-186.25-416-416-416-416 186.25-416 416 186.25 416 416 416zM669.256 578.744l-90.512 90.512-285.254-285.256 285.256-285.254 90.508 90.508-194.744 194.746z" />
<glyph unicode="&#xea5a;" glyph-name="scissors" d="M913.826 216.306c-66.684 104.204-181.078 150.064-255.51 102.434-6.428-4.116-12.334-8.804-17.744-13.982l-79.452 124.262 183.462 287.972c15.016 27.73 20.558 60.758 13.266 93.974-6.972 31.75-24.516 58.438-48.102 77.226l-12.278 7.808-217.468-340.114-217.47 340.114-12.276-7.806c-23.586-18.79-41.13-45.476-48.1-77.226-7.292-33.216-1.75-66.244 13.264-93.974l183.464-287.972-79.454-124.262c-5.41 5.178-11.316 9.868-17.744 13.982-74.432 47.63-188.826 1.77-255.51-102.434-66.68-104.2-60.398-227.286 14.032-274.914 74.43-47.632 188.824-1.77 255.508 102.432l164.286 257.87 164.288-257.872c66.684-104.202 181.078-150.064 255.508-102.432 74.428 47.63 80.71 170.716 14.030 274.914zM234.852 95.57c-30.018-46.904-68.534-69.726-94.572-75.446-0.004 0-0.004 0-0.004 0-8.49-1.868-20.294-3.010-28.324 2.128-8.898 5.694-14.804 20.748-15.8 40.276-1.616 31.644 9.642 68.836 30.888 102.034 30.014 46.906 68.53 69.726 94.562 75.444 8.496 1.866 20.308 3.010 28.336-2.126 8.898-5.694 14.802-20.75 15.798-40.272 1.618-31.65-9.64-68.84-30.884-102.038zM480 384c-17.672 0-32 14.328-32 32s14.328 32 32 32 32-14.328 32-32-14.328-32-32-32zM863.85 62.53c-0.996-19.528-6.902-34.582-15.8-40.276-8.030-5.138-19.834-3.996-28.324-2.128 0 0 0 0-0.004 0-26.040 5.718-64.554 28.542-94.572 75.446-21.244 33.198-32.502 70.388-30.884 102.038 0.996 19.522 6.9 34.578 15.798 40.272 8.028 5.136 19.84 3.992 28.336 2.126 26.034-5.716 64.548-28.538 94.562-75.444 21.246-33.198 32.502-70.39 30.888-102.034z" />
<glyph unicode="&#xea5b;" glyph-name="filter" d="M512 896c-282.77 0-512-71.634-512-160v-96l384-384v-320c0-35.346 57.306-64 128-64 70.692 0 128 28.654 128 64v320l384 384v96c0 88.366-229.23 160-512 160zM94.384 757.176c23.944 13.658 57.582 26.62 97.278 37.488 87.944 24.076 201.708 37.336 320.338 37.336 118.628 0 232.394-13.26 320.338-37.336 39.696-10.868 73.334-23.83 97.28-37.488 15.792-9.006 24.324-16.624 28.296-21.176-3.972-4.552-12.506-12.168-28.296-21.176-23.946-13.658-57.584-26.62-97.28-37.488-87.942-24.076-201.708-37.336-320.338-37.336s-232.394 13.26-320.338 37.336c-39.696 10.868-73.334 23.83-97.278 37.488-15.792 9.008-24.324 16.624-28.298 21.176 3.974 4.552 12.506 12.168 28.298 21.176z" />
<glyph unicode="&#xea62;" glyph-name="bold" d="M707.88 411.348c37.498 44.542 60.12 102.008 60.12 164.652 0 141.16-114.842 256-256 256h-320v-896h384c141.158 0 256 114.842 256 256 0 92.956-49.798 174.496-124.12 219.348zM384 704h101.5c55.968 0 101.5-57.42 101.5-128s-45.532-128-101.5-128h-101.5v256zM543 64h-159v256h159c58.45 0 106-57.42 106-128s-47.55-128-106-128z" />
<glyph unicode="&#xea63;" glyph-name="underline" d="M704 832h128v-416c0-159.058-143.268-288-320-288-176.73 0-320 128.942-320 288v416h128v-416c0-40.166 18.238-78.704 51.354-108.506 36.896-33.204 86.846-51.494 140.646-51.494s103.75 18.29 140.646 51.494c33.116 29.802 51.354 68.34 51.354 108.506v416zM192 64h640v-128h-640z" />
<glyph unicode="&#xea64;" glyph-name="italic" d="M896 832v-64h-128l-320-768h128v-64h-448v64h128l320 768h-128v64z" />
<glyph unicode="&#xea65;" glyph-name="strikethrough" d="M1024 384v-64h-234.506c27.504-38.51 42.506-82.692 42.506-128 0-70.878-36.66-139.026-100.58-186.964-59.358-44.518-137.284-69.036-219.42-69.036-82.138 0-160.062 24.518-219.42 69.036-63.92 47.938-100.58 116.086-100.58 186.964h128c0-69.382 87.926-128 192-128s192 58.618 192 128c0 69.382-87.926 128-192 128h-512v64h299.518c-2.338 1.654-4.656 3.324-6.938 5.036-63.92 47.94-100.58 116.086-100.58 186.964s36.66 139.024 100.58 186.964c59.358 44.518 137.282 69.036 219.42 69.036 82.136 0 160.062-24.518 219.42-69.036 63.92-47.94 100.58-116.086 100.58-186.964h-128c0 69.382-87.926 128-192 128s-192-58.618-192-128c0-69.382 87.926-128 192-128 78.978 0 154.054-22.678 212.482-64h299.518z" />
<glyph unicode="&#xead9;" glyph-name="chrome" d="M258.278 449.458l-146.532 253.802c93.818 117.464 238.234 192.74 400.254 192.74 187.432 0 351.31-100.736 440.532-251h-417.77c-7.504 0.65-15.092 1-22.762 1-121.874 0-224.578-83.644-253.722-196.542zM695.306 571h293.46c22.74-57.93 35.234-121.004 35.234-187 0-280.826-226.1-508.804-506.186-511.926l209.394 362.678c29.48 42.378 46.792 93.826 46.792 149.248 0 73.17-30.164 139.42-78.694 187zM326 384c0 102.56 83.44 186 186 186s186-83.44 186-186c0-102.56-83.44-186-186-186s-186 83.44-186 186zM582.182 131.558l-146.578-253.878c-246.532 36.884-435.604 249.516-435.604 506.32 0 91.218 23.884 176.846 65.696 251.024l209.030-362.054c41.868-89.112 132.476-150.97 237.274-150.97 24.3 0 47.836 3.34 70.182 9.558z" />
<glyph unicode="&#xeada;" glyph-name="firefox" d="M1022.526 561.86l-11.86-76.080c0 0-16.954 140.856-37.732 193.514-31.846 80.688-46.014 80.040-46.108 79.922 21.33-54.204 17.462-83.324 17.462-83.324s-37.792 102.998-137.712 135.768c-110.686 36.282-170.57 26.364-177.488 24.486-1.050 0.008-2.064 0.010-3.030 0.010 0.818-0.062 1.612-0.146 2.426-0.212-0.034-0.020-0.090-0.042-0.082-0.052 0.45-0.548 122.306-21.302 143.916-50.996 0 0-51.76 0-103.272-14.842-2.328-0.666 189.524-23.964 228.746-215.674 0 0-21.030 43.876-47.040 51.328 17.106-52.036 12.714-150.776-3.576-199.85-2.096-6.312-4.24 27.282-36.328 41.75 10.28-73.646-0.616-190.456-51.708-222.632-3.982-2.504 32.030 115.31 7.242 69.762-142.708-218.802-311.404-100.972-387.248-49.11 38.866-8.462 112.654 1.318 145.314 25.612 0.042 0.030 0.078 0.056 0.118 0.086 35.468 24.252 56.472 41.964 75.334 37.772 18.874-4.214 31.438 14.726 16.78 31.53-14.676 16.838-50.314 39.978-98.524 27.366-34-8.904-76.134-46.522-140.448-8.432-49.364 29.25-54.012 53.546-54.45 70.376 1.218 5.966 2.754 11.536 4.576 16.624 5.682 15.87 22.912 20.658 32.494 24.438 16.256-2.792 30.262-7.862 44.968-15.406 0.19 4.894 0.252 11.39-0.018 18.76 1.41 2.802 0.538 11.252-1.722 21.58-1.302 10.308-3.42 20.974-6.752 30.692 0.012 0.002 0.020 0.010 0.030 0.014 0.056 0.018 0.108 0.040 0.156 0.070 0.078 0.044 0.146 0.112 0.208 0.19 0.012 0.020 0.030 0.034 0.044 0.052 0.082 0.124 0.154 0.272 0.198 0.466 1.020 4.618 12.022 13.524 25.718 23.1 12.272 8.58 26.702 17.696 38.068 24.752 10.060 6.248 17.72 10.882 19.346 12.098 0.618 0.466 1.358 1.012 2.164 1.636 0.15 0.116 0.3 0.232 0.454 0.354 0.094 0.074 0.19 0.148 0.286 0.226 5.41 4.308 13.484 12.448 15.178 29.578 0.004 0.042 0.010 0.080 0.012 0.122 0.050 0.504 0.092 1.014 0.13 1.534 0.028 0.362 0.050 0.726 0.072 1.096 0.014 0.284 0.032 0.566 0.044 0.856 0.030 0.674 0.050 1.364 0.060 2.064 0 0.040 0.002 0.076 0.004 0.116 0.022 1.658-0.006 3.386-0.104 5.202-0.054 1.014-0.126 1.93-0.298 2.762-0.008 0.044-0.018 0.092-0.028 0.136-0.018 0.082-0.036 0.164-0.058 0.244-0.036 0.146-0.076 0.292-0.122 0.43-0.006 0.018-0.010 0.032-0.016 0.046-0.052 0.16-0.112 0.314-0.174 0.464-0.004 0.006-0.004 0.010-0.006 0.016-1.754 4.108-8.32 5.658-35.442 6.118-0.026 0.002-0.050 0.002-0.076 0.002v0c-11.066 0.188-25.538 0.194-44.502 0.118-33.25-0.134-51.628 32.504-57.494 45.132 8.040 44.46 31.276 76.142 69.45 97.626 0.722 0.406 0.58 0.742-0.274 0.978 7.464 4.514-90.246 0.124-135.186-57.036-39.888 9.914-74.654 9.246-104.616 2.214-5.754 0.162-12.924 0.88-21.434 2.652-19.924 18.056-48.448 51.402-49.976 91.208 0 0-0.092-0.072-0.252-0.204-0.020 0.382-0.056 0.76-0.072 1.142 0 0-60.716-46.664-51.628-173.882-0.022-2.036-0.064-3.986-0.12-5.874-16.432-22.288-24.586-41.020-25.192-45.156-14.56-29.644-29.334-74.254-41.356-141.98 0 0 8.408 26.666 25.284 56.866-12.412-38.022-22.164-97.156-16.436-185.856 0 0 1.514 19.666 6.874 47.994 4.186-55.010 22.518-122.924 68.858-202.788 88.948-153.32 225.67-230.74 376.792-242.616 26.836-2.212 54.050-2.264 81.424-0.186 2.516 0.178 5.032 0.364 7.55 0.574 30.964 2.174 62.134 6.852 93.238 14.366 425.172 102.798 378.942 616.198 378.942 616.198z" />
<glyph unicode="&#xeadb;" glyph-name="IE" d="M734.202 267.17h236.050c1.82 16.37 2.548 33.098 2.548 50.196 0 80.224-21.534 155.468-59.124 220.266 38.88 103.308 37.492 190.988-14.556 243.39-49.496 49.28-182.29 41.28-332.412-25.198-11.104 0.84-22.318 1.272-33.638 1.272-206.048 0-378.926-141.794-426.708-332.85 64.638 82.754 132.638 142.754 223.478 186.448-8.26-7.74-56.454-55.652-64.56-63.764-239.548-239.478-315.090-552.306-233.806-633.604 61.786-61.774 173.758-51.342 302.376 11.648 59.806-30.458 127.5-47.63 199.218-47.63 193.134 0 356.804 124.316 416.090 297.448h-237.868c-32.734-60.382-96.748-101.48-170.218-101.48-73.468 0-137.484 41.098-170.216 101.48-14.55 27.274-22.914 58.554-22.914 91.656v0.722h386.26zM348.302 383.196c5.456 97.11 86.2 174.584 184.766 174.584s179.312-77.472 184.766-174.584h-369.532zM896.966 732.192c33.526-33.88 32.688-96.214 4.012-174.022-49.136 74.908-120.518 133.936-204.792 167.64 90.106 38.638 163.406 43.756 200.78 6.382zM93.482-71.256c-42.782 42.796-29.884 132.618 25.23 240.832 34.308-96.27 101.156-177.090 187.336-229.154-95.43-43.318-173.536-50.674-212.566-11.678z" />
<glyph unicode="&#xeadc;" glyph-name="edge" d="M15.4 441.4c30 236.8 191.6 451.6 481.2 454.6 174.8-3.4 318.6-82.6 404.2-233.6 43-78.8 56.4-161.6 59.2-253v-107.4h-642.6c3-265 390-256 556.6-139.2v-215.8c-97.6-58.6-319-111-490.4-43.6-146 54.8-250 207.6-249.4 354.6-4.8 190.6 94.8 316.8 249.4 388.6-32.8-40.6-57.8-85.4-70.8-163h362.8c0 0 21.2 216.8-205.4 216.8-213.6-7.4-367.6-131.6-454.8-259v0z" />
</font>
</defs>
</svg>
